<svg width="30" height="27" viewBox="0 0 30 27" fill="none" xmlns="http://www.w3.org/2000/svg">
<path d="M26.6667 2.8125C27.125 2.8125 27.5 3.23437 27.5 3.75V22.5C27.5 23.0156 27.125 23.4375 26.6667 23.4375H3.33333C2.875 23.4375 2.5 23.0156 2.5 22.5V3.75C2.5 3.23437 2.875 2.8125 3.33333 2.8125H26.6667ZM3.33333 0C1.49479 0 0 1.68164 0 3.75V22.5C0 24.5684 1.49479 26.25 3.33333 26.25H26.6667C28.5052 26.25 30 24.5684 30 22.5V3.75C30 1.68164 28.5052 0 26.6667 0H3.33333ZM10.8333 13.125C11.7174 13.125 12.5652 12.7299 13.1904 12.0267C13.8155 11.3234 14.1667 10.3696 14.1667 9.375C14.1667 8.38044 13.8155 7.42661 13.1904 6.72335C12.5652 6.02009 11.7174 5.625 10.8333 5.625C9.94928 5.625 9.10143 6.02009 8.47631 6.72335C7.85119 7.42661 7.5 8.38044 7.5 9.375C7.5 10.3696 7.85119 11.3234 8.47631 12.0267C9.10143 12.7299 9.94928 13.125 10.8333 13.125ZM9.16667 15C6.86458 15 5 17.0977 5 19.6875C5 20.2031 5.375 20.625 5.83333 20.625H15.8333C16.2917 20.625 16.6667 20.2031 16.6667 19.6875C16.6667 17.0977 14.8021 15 12.5 15H9.16667ZM19.5833 6.5625C18.8906 6.5625 18.3333 7.18945 18.3333 7.96875C18.3333 8.74805 18.8906 9.375 19.5833 9.375H23.75C24.4427 9.375 25 8.74805 25 7.96875C25 7.18945 24.4427 6.5625 23.75 6.5625H19.5833ZM19.5833 12.1875C18.8906 12.1875 18.3333 12.8145 18.3333 13.5938C18.3333 14.373 18.8906 15 19.5833 15H23.75C24.4427 15 25 14.373 25 13.5938C25 12.8145 24.4427 12.1875 23.75 12.1875H19.5833Z" fill="#4ECB71"/>
</svg>
