<svg width="2777" height="2066" viewBox="0 0 2777 2066" fill="none" xmlns="http://www.w3.org/2000/svg">
<path d="M1394.88 370.557H1054.33V595.678" stroke="black" stroke-width="42.5" stroke-miterlimit="10"/>
<path d="M1385.35 585.81H1148.84V543.357H1114.1V595.674H893.421L833.483 634.78V1179.44L898.188 1246.38H991.16L1032.2 1195.82V667.368L1114.1 628.262V595.674" stroke="black" stroke-width="42.5" stroke-miterlimit="10"/>
<path d="M1101.5 1199.17V726.029H1426.39" stroke="black" stroke-width="42.5" stroke-miterlimit="10"/>
<path d="M1025.9 732.549H745.28V761.966" stroke="black" stroke-width="42.5" stroke-miterlimit="10"/>
<path d="M1025.9 921.729L751.581 899.006V866.418" stroke="black" stroke-width="42.5" stroke-miterlimit="10"/>
<path d="M789.381 755.445H710.543V869.591H789.381V755.445Z" stroke="black" stroke-width="42.5" stroke-miterlimit="10"/>
<path d="M1032.2 1195.82H1382.28" stroke="black" stroke-width="42.5" stroke-miterlimit="10"/>
<path d="M991.159 1246.38V1368.81" stroke="black" stroke-width="42.5" stroke-miterlimit="10"/>
<path d="M95.6742 1593.75H23.1367V1962.43H95.6742V1593.75Z" stroke="black" stroke-width="42.5" stroke-miterlimit="10"/>
<path d="M95.6738 1897.26H1435.75" stroke="black" stroke-width="42.5" stroke-miterlimit="10"/>
<path d="M95.6738 1593.74H137.562V1381.83H190.178V1851.45H134.838V1646.06H98.7392" stroke="black" stroke-width="42.5" stroke-miterlimit="10"/>
<path d="M134.838 1646.06V1593.75" stroke="black" stroke-width="42.5" stroke-miterlimit="10"/>
<path d="M193.413 1411.08H1391.65" stroke="black" stroke-width="42.5" stroke-miterlimit="10"/>
<path d="M190.178 1443.84H1382.28" stroke="black" stroke-width="42.5" stroke-miterlimit="10"/>
<path d="M143.011 1544.95H187.113H1419.4" stroke="black" stroke-width="42.5" stroke-miterlimit="10"/>
<path d="M190.178 1577.54H1394.88" stroke="black" stroke-width="42.5" stroke-miterlimit="10"/>
<path d="M187.113 1763.38H1404.25" stroke="black" stroke-width="42.5" stroke-miterlimit="10"/>
<path d="M190.178 1799.32H1401.18" stroke="black" stroke-width="42.5" stroke-miterlimit="10"/>
<path d="M187.113 1616.65H1379.05" stroke="black" stroke-width="42.5" stroke-miterlimit="10"/>
<path d="M190.178 1652.58H1443.58" stroke="black" stroke-width="42.5" stroke-miterlimit="10"/>
<path d="M1155.14 1277.38H1085.83V1349.07H1155.14V1277.38Z" stroke="black" stroke-width="42.5" stroke-miterlimit="10"/>
<path d="M1271.77 1192.65L1309.75 1097.88H1397.95" stroke="black" stroke-width="42.5" stroke-miterlimit="10"/>
<path d="M190.178 1832.08H1303.45" stroke="black" stroke-width="42.5" stroke-miterlimit="10"/>
<path d="M628.64 1765.32L685.002 1695.74" stroke="black" stroke-width="42.5" stroke-miterlimit="10"/>
<path d="M500.763 1695.74L555.762 1763.56" stroke="black" stroke-width="42.5" stroke-miterlimit="10"/>
<path d="M500.763 1914.88L592.882 1997.31L685.001 1914.88" stroke="black" stroke-width="42.5" stroke-miterlimit="10"/>
<path d="M636.302 1616.84L671.039 1580.9" stroke="black" stroke-width="42.5" stroke-miterlimit="10"/>
<path d="M515.577 1581.6L549.462 1616.66" stroke="black" stroke-width="42.5" stroke-miterlimit="10"/>
<path d="M500.763 1457.59L592.882 1537.74L685.001 1457.59" stroke="black" stroke-width="42.5" stroke-miterlimit="10"/>
<path d="M625.065 1410.03L685.002 1366.17" stroke="black" stroke-width="42.5" stroke-miterlimit="10"/>
<path d="M500.763 1366.17L563.254 1411.79" stroke="black" stroke-width="42.5" stroke-miterlimit="10"/>
<path d="M477.775 1896.91V1966.32L476.924 2040.65H426.521L417.327 1972.31L391.615 1974.07L404.215 2036.07L344.789 2037.48L335.253 1978.82L318.736 1981.99V2044H231.214L228.149 1962.44H210.781V2037.48H139.776L133.475 1972.31L110.658 1971.78L116.958 2037.13L1 2037.48" stroke="black" stroke-width="42.5" stroke-miterlimit="10"/>
<path d="M477.775 1799.32V1833.14" stroke="black" stroke-width="42.5" stroke-miterlimit="10"/>
<path d="M477.775 1656.12V1765.51" stroke="black" stroke-width="42.5" stroke-miterlimit="10"/>
<path d="M477.775 1580.36V1616.3" stroke="black" stroke-width="42.5" stroke-miterlimit="10"/>
<path d="M477.775 1447.02V1544.61" stroke="black" stroke-width="42.5" stroke-miterlimit="10"/>
<path d="M708.84 1407.21V1355.77L674.615 1313.67H521.536L477.775 1367.58V1413.2" stroke="black" stroke-width="42.5" stroke-miterlimit="10"/>
<path d="M708.84 1546.54V1441.03" stroke="black" stroke-width="42.5" stroke-miterlimit="10"/>
<path d="M708.84 1620.18V1576.49" stroke="black" stroke-width="42.5" stroke-miterlimit="10"/>
<path d="M708.84 1767.44V1650.13" stroke="black" stroke-width="42.5" stroke-miterlimit="10"/>
<path d="M708.84 1835.26V1807.25" stroke="black" stroke-width="42.5" stroke-miterlimit="10"/>
<path d="M735.574 2035.72H708.84V1894.8" stroke="black" stroke-width="42.5" stroke-miterlimit="10"/>
<path d="M447.125 1411.08H1645.53" stroke="black" stroke-width="42.5" stroke-miterlimit="10"/>
<path d="M910.958 1765.32L967.49 1695.74" stroke="black" stroke-width="42.5" stroke-miterlimit="10"/>
<path d="M783.081 1695.74L838.25 1763.56" stroke="black" stroke-width="42.5" stroke-miterlimit="10"/>
<path d="M783.081 1914.88L875.201 1997.31L967.491 1914.88" stroke="black" stroke-width="42.5" stroke-miterlimit="10"/>
<path d="M918.792 1616.84L953.358 1580.9" stroke="black" stroke-width="42.5" stroke-miterlimit="10"/>
<path d="M797.895 1581.6L831.781 1616.66" stroke="black" stroke-width="42.5" stroke-miterlimit="10"/>
<path d="M783.081 1457.59L875.201 1537.74L967.491 1457.59" stroke="black" stroke-width="42.5" stroke-miterlimit="10"/>
<path d="M907.553 1410.03L967.491 1366.17" stroke="black" stroke-width="42.5" stroke-miterlimit="10"/>
<path d="M783.081 1366.17L845.573 1411.79" stroke="black" stroke-width="42.5" stroke-miterlimit="10"/>
<path d="M760.094 1896.91V1966.32L759.413 2040.65L708.84 2035.72" stroke="black" stroke-width="42.5" stroke-miterlimit="10"/>
<path d="M760.094 1799.32V1833.14" stroke="black" stroke-width="42.5" stroke-miterlimit="10"/>
<path d="M760.094 1656.12V1765.51" stroke="black" stroke-width="42.5" stroke-miterlimit="10"/>
<path d="M760.094 1580.36V1616.3" stroke="black" stroke-width="42.5" stroke-miterlimit="10"/>
<path d="M760.094 1447.02V1544.61" stroke="black" stroke-width="42.5" stroke-miterlimit="10"/>
<path d="M991.159 1407.21V1355.77L957.104 1313.67H804.025L760.094 1367.58V1413.2" stroke="black" stroke-width="42.5" stroke-miterlimit="10"/>
<path d="M991.159 1546.54V1441.03" stroke="black" stroke-width="42.5" stroke-miterlimit="10"/>
<path d="M991.159 1620.18V1576.49" stroke="black" stroke-width="42.5" stroke-miterlimit="10"/>
<path d="M991.159 1767.44V1650.13" stroke="black" stroke-width="42.5" stroke-miterlimit="10"/>
<path d="M991.159 1835.26V1807.25" stroke="black" stroke-width="42.5" stroke-miterlimit="10"/>
<path d="M991.159 1894.8V2035.72H1017.89L1063.7 2008.06L1107.8 2005.95V1949.4L1126.87 1945L1128.91 2010.35H1170.97V1949.4L1191.92 1947.29V2010.35H1219.33V1949.4H1242.49L1240.27 2005.95L1301.23 2003.83L1292.89 1940.77L1316.05 1936.37L1326.43 2003.83H1406.46" stroke="black" stroke-width="42.5" stroke-miterlimit="10"/>
<path d="M1382.28 370.557H1722.84V595.678" stroke="black" stroke-width="42.5" stroke-miterlimit="10"/>
<path d="M1331.71 585.81H1628.16V543.357H1662.9V595.674H1883.58L1943.52 634.78V1179.44L1878.81 1246.38H1785.84L1744.8 1195.82V667.368L1662.9 628.262V595.674" stroke="black" stroke-width="42.5" stroke-miterlimit="10"/>
<path d="M1675.5 1199.17V726.029H1350.61" stroke="black" stroke-width="42.5" stroke-miterlimit="10"/>
<path d="M1751.1 732.549H2031.89V761.966" stroke="black" stroke-width="42.5" stroke-miterlimit="10"/>
<path d="M1751.1 921.729L2025.42 899.006V866.418" stroke="black" stroke-width="42.5" stroke-miterlimit="10"/>
<path d="M2066.46 755.445H1987.62V869.591H2066.46V755.445Z" stroke="black" stroke-width="42.5" stroke-miterlimit="10"/>
<path d="M1744.8 1195.82H1394.88" stroke="black" stroke-width="42.5" stroke-miterlimit="10"/>
<path d="M1785.84 1246.38V1368.81" stroke="black" stroke-width="42.5" stroke-miterlimit="10"/>
<path d="M2753.86 1593.75H2681.33V1962.43H2753.86V1593.75Z" stroke="black" stroke-width="42.5" stroke-miterlimit="10"/>
<path d="M2681.33 1897.26H1341.25" stroke="black" stroke-width="42.5" stroke-miterlimit="10"/>
<path d="M2681.33 1593.74H2639.44V1381.83H2586.82V1851.45H2642.33V1646.06H2678.26" stroke="black" stroke-width="42.5" stroke-miterlimit="10"/>
<path d="M2642.33 1646.06V1593.75" stroke="black" stroke-width="42.5" stroke-miterlimit="10"/>
<path d="M2583.59 1411.08H1385.35" stroke="black" stroke-width="42.5" stroke-miterlimit="10"/>
<path d="M2586.82 1443.84H1365.09" stroke="black" stroke-width="42.5" stroke-miterlimit="10"/>
<path d="M2634.16 1544.95H2589.89H1391.65" stroke="black" stroke-width="42.5" stroke-miterlimit="10"/>
<path d="M2586.82 1577.54H1382.28" stroke="black" stroke-width="42.5" stroke-miterlimit="10"/>
<path d="M2589.89 1763.38H1372.75" stroke="black" stroke-width="42.5" stroke-miterlimit="10"/>
<path d="M2586.82 1799.32H1375.99" stroke="black" stroke-width="42.5" stroke-miterlimit="10"/>
<path d="M2589.89 1616.65H1353.17" stroke="black" stroke-width="42.5" stroke-miterlimit="10"/>
<path d="M2586.82 1652.58H1397.95" stroke="black" stroke-width="42.5" stroke-miterlimit="10"/>
<path d="M1691.34 1277.38H1622.03V1349.07H1691.34V1277.38Z" stroke="black" stroke-width="42.5" stroke-miterlimit="10"/>
<path d="M1505.23 1192.65L1467.42 1097.88H1379.05" stroke="black" stroke-width="42.5" stroke-miterlimit="10"/>
<path d="M2586.82 1832.08H1295.79" stroke="black" stroke-width="42.5" stroke-miterlimit="10"/>
<path d="M2148.53 1765.32L2092 1695.74" stroke="black" stroke-width="42.5" stroke-miterlimit="10"/>
<path d="M2276.24 1695.74L2221.24 1763.56" stroke="black" stroke-width="42.5" stroke-miterlimit="10"/>
<path d="M2276.24 1914.88L2184.12 1997.31L2092 1914.88" stroke="black" stroke-width="42.5" stroke-miterlimit="10"/>
<path d="M2140.7 1616.84L2105.96 1580.9" stroke="black" stroke-width="42.5" stroke-miterlimit="10"/>
<path d="M2261.42 1581.6L2227.54 1616.66" stroke="black" stroke-width="42.5" stroke-miterlimit="10"/>
<path d="M2276.24 1457.59L2184.12 1537.74L2092 1457.59" stroke="black" stroke-width="42.5" stroke-miterlimit="10"/>
<path d="M2151.94 1410.03L2092 1366.17" stroke="black" stroke-width="42.5" stroke-miterlimit="10"/>
<path d="M2276.24 1366.17L2213.75 1411.79" stroke="black" stroke-width="42.5" stroke-miterlimit="10"/>
<path d="M2299.23 1896.91V1966.32L2300.08 2040.65H2350.65L2359.84 1972.31L2385.39 1974.07L2372.78 2036.07L2432.21 2037.48L2441.75 1978.82L2458.26 1981.99V2044H2545.79L2549.02 1962.44H2566.22V2037.48H2637.22L2643.52 1972.31L2666.34 1971.78L2660.04 2037.13L2776 2037.48" stroke="black" stroke-width="42.5" stroke-miterlimit="10"/>
<path d="M2299.23 1799.32V1833.14" stroke="black" stroke-width="42.5" stroke-miterlimit="10"/>
<path d="M2299.23 1656.12V1765.51" stroke="black" stroke-width="42.5" stroke-miterlimit="10"/>
<path d="M2299.23 1580.36V1616.3" stroke="black" stroke-width="42.5" stroke-miterlimit="10"/>
<path d="M2299.23 1447.02V1544.61" stroke="black" stroke-width="42.5" stroke-miterlimit="10"/>
<path d="M2068.16 1407.21V1355.77L2102.39 1313.67H2255.46L2299.23 1367.58V1413.2" stroke="black" stroke-width="42.5" stroke-miterlimit="10"/>
<path d="M2068.16 1546.54V1441.03" stroke="black" stroke-width="42.5" stroke-miterlimit="10"/>
<path d="M2068.16 1620.18V1576.49" stroke="black" stroke-width="42.5" stroke-miterlimit="10"/>
<path d="M2068.16 1767.44V1650.13" stroke="black" stroke-width="42.5" stroke-miterlimit="10"/>
<path d="M2068.16 1835.26V1807.25" stroke="black" stroke-width="42.5" stroke-miterlimit="10"/>
<path d="M2041.43 2035.72H2068.16V1894.8" stroke="black" stroke-width="42.5" stroke-miterlimit="10"/>
<path d="M2329.87 1411.08H1131.64" stroke="black" stroke-width="42.5" stroke-miterlimit="10"/>
<path d="M1866.04 1765.32L1809.68 1695.74" stroke="black" stroke-width="42.5" stroke-miterlimit="10"/>
<path d="M1993.92 1695.74L1938.92 1763.56" stroke="black" stroke-width="42.5" stroke-miterlimit="10"/>
<path d="M1993.92 1914.88L1901.8 1997.31L1809.68 1914.88" stroke="black" stroke-width="42.5" stroke-miterlimit="10"/>
<path d="M1858.38 1616.84L1823.64 1580.9" stroke="black" stroke-width="42.5" stroke-miterlimit="10"/>
<path d="M1979.1 1581.6L1945.22 1616.66" stroke="black" stroke-width="42.5" stroke-miterlimit="10"/>
<path d="M1993.92 1457.59L1901.8 1537.74L1809.68 1457.59" stroke="black" stroke-width="42.5" stroke-miterlimit="10"/>
<path d="M1869.62 1410.03L1809.68 1366.17" stroke="black" stroke-width="42.5" stroke-miterlimit="10"/>
<path d="M1993.92 1366.17L1931.43 1411.79" stroke="black" stroke-width="42.5" stroke-miterlimit="10"/>
<path d="M2016.91 1896.91V1966.32L2017.76 2040.65L2068.16 2035.72" stroke="black" stroke-width="42.5" stroke-miterlimit="10"/>
<path d="M2016.91 1799.32V1833.14" stroke="black" stroke-width="42.5" stroke-miterlimit="10"/>
<path d="M2016.91 1656.12V1765.51" stroke="black" stroke-width="42.5" stroke-miterlimit="10"/>
<path d="M2016.91 1580.36V1616.3" stroke="black" stroke-width="42.5" stroke-miterlimit="10"/>
<path d="M2016.91 1447.02V1544.61" stroke="black" stroke-width="42.5" stroke-miterlimit="10"/>
<path d="M1785.84 1407.21V1355.77L1820.07 1313.67H1973.15L2016.91 1367.58V1413.2" stroke="black" stroke-width="42.5" stroke-miterlimit="10"/>
<path d="M1785.84 1546.54V1441.03" stroke="black" stroke-width="42.5" stroke-miterlimit="10"/>
<path d="M1785.84 1620.18V1576.49" stroke="black" stroke-width="42.5" stroke-miterlimit="10"/>
<path d="M1785.84 1767.44V1650.13" stroke="black" stroke-width="42.5" stroke-miterlimit="10"/>
<path d="M1785.84 1835.26V1807.25" stroke="black" stroke-width="42.5" stroke-miterlimit="10"/>
<path d="M1785.84 1894.8V2035.72H1759.11L1713.3 2008.06L1669.2 2005.95V1949.4L1650.3 1945L1648.09 2010.35H1606.03V1949.4L1585.08 1947.29V2010.35H1557.67V1949.4H1534.68L1536.73 2005.95L1475.77 2003.83L1484.11 1940.77L1461.12 1936.37L1450.57 2003.83H1370.71" stroke="black" stroke-width="42.5" stroke-miterlimit="10"/>
<path d="M1023.68 1759.87V1706.84L1071.53 1741.02H1713.98L1753.66 1696.63V1763.21" stroke="black" stroke-width="42.5" stroke-miterlimit="10"/>
<path d="M893.421 595.674H265.951L143.011 729.373L224.914 804.413L319.588 716.337H830.418" stroke="black" stroke-width="42.5" stroke-miterlimit="10"/>
<path d="M1009.04 595.676L694.708 288.997L729.445 266.098L1054.33 595.676" stroke="black" stroke-width="42.5" stroke-miterlimit="10"/>
<path d="M1761.66 595.676L2075.99 288.997L2041.26 266.098L1716.54 595.676" stroke="black" stroke-width="42.5" stroke-miterlimit="10"/>
<path d="M2020.84 156.306C2059.69 132.437 2114.09 128.406 2158.92 149.371C2203.75 170.336 2226.66 210.493 2220.68 249.683" stroke="black" stroke-width="42.5" stroke-miterlimit="10" stroke-linecap="round" stroke-linejoin="round"/>
<path d="M1924.85 91.7795C2002.77 36.9355 2111.37 27.454 2201.24 75.7911C2291.12 124.128 2336.75 216.712 2324.59 307.065" stroke="black" stroke-width="42.5" stroke-miterlimit="10" stroke-linecap="round" stroke-linejoin="round"/>
<path d="M751.603 138.804C712.75 114.936 658.354 110.904 613.524 131.869C568.693 152.834 545.78 192.991 551.757 232.181" stroke="black" stroke-width="42.5" stroke-miterlimit="10" stroke-linecap="round" stroke-linejoin="round"/>
<path d="M838.726 63.0084C760.82 15.433 652.23 7.20804 562.37 49.139C472.509 91.0699 426.881 171.384 439.035 249.762" stroke="black" stroke-width="42.5" stroke-miterlimit="10" stroke-linecap="round" stroke-linejoin="round"/>
</svg>
