<svg width="3861" height="2614" viewBox="0 0 3861 2614" fill="none" xmlns="http://www.w3.org/2000/svg">
<path d="M1939.38 465.023H1465.79V751.156" stroke="#55C852" stroke-width="42.5" stroke-miterlimit="10"/>
<path d="M1926.12 738.614H1597.22V684.656H1548.91V751.152H1242.03L1158.68 800.856V1493.13L1248.66 1578.21H1377.95L1435.01 1513.95V842.276L1548.91 792.572V751.152" stroke="#55C852" stroke-width="42.5" stroke-miterlimit="10"/>
<path d="M1531.39 1518.21V916.836H1983.19" stroke="#55C852" stroke-width="42.5" stroke-miterlimit="10"/>
<path d="M1426.25 925.121H1036.02V962.511" stroke="#55C852" stroke-width="42.5" stroke-miterlimit="10"/>
<path d="M1426.25 1165.57L1044.78 1136.69V1095.27" stroke="#55C852" stroke-width="42.5" stroke-miterlimit="10"/>
<path d="M1097.35 954.225H987.712V1099.31H1097.35V954.225Z" stroke="#55C852" stroke-width="42.5" stroke-miterlimit="10"/>
<path d="M1435.01 1513.95H1921.86" stroke="#55C852" stroke-width="42.5" stroke-miterlimit="10"/>
<path d="M1377.95 1578.21V1733.82" stroke="#55C852" stroke-width="42.5" stroke-miterlimit="10"/>
<path d="M132.657 2019.72H31.7842V2488.33H132.657V2019.72Z" stroke="#55C852" stroke-width="42.5" stroke-miterlimit="10"/>
<path d="M132.656 2405.49H1996.21" stroke="#55C852" stroke-width="42.5" stroke-miterlimit="10"/>
<path d="M132.656 2019.71H190.908V1750.37H264.076V2347.27H187.119V2086.21H136.919" stroke="#55C852" stroke-width="42.5" stroke-miterlimit="10"/>
<path d="M187.119 2086.22V2019.72" stroke="#55C852" stroke-width="42.5" stroke-miterlimit="10"/>
<path d="M268.576 1787.54H1934.88" stroke="#55C852" stroke-width="42.5" stroke-miterlimit="10"/>
<path d="M264.076 1829.19H1921.86" stroke="#55C852" stroke-width="42.5" stroke-miterlimit="10"/>
<path d="M198.484 1957.7H259.814H1973.48" stroke="#55C852" stroke-width="42.5" stroke-miterlimit="10"/>
<path d="M264.076 1999.12H1939.38" stroke="#55C852" stroke-width="42.5" stroke-miterlimit="10"/>
<path d="M259.815 2235.32H1952.4" stroke="#55C852" stroke-width="42.5" stroke-miterlimit="10"/>
<path d="M264.076 2281.01H1948.14" stroke="#55C852" stroke-width="42.5" stroke-miterlimit="10"/>
<path d="M259.815 2048.84H1917.36" stroke="#55C852" stroke-width="42.5" stroke-miterlimit="10"/>
<path d="M264.076 2094.5H2007.1" stroke="#55C852" stroke-width="42.5" stroke-miterlimit="10"/>
<path d="M1605.98 1617.61H1509.6V1708.74H1605.98V1617.61Z" stroke="#55C852" stroke-width="42.5" stroke-miterlimit="10"/>
<path d="M1768.18 1509.92L1820.98 1389.47H1943.64" stroke="#55C852" stroke-width="42.5" stroke-miterlimit="10"/>
<path d="M264.076 2322.65H1812.22" stroke="#55C852" stroke-width="42.5" stroke-miterlimit="10"/>
<path d="M873.815 2237.79L952.194 2149.36" stroke="#55C852" stroke-width="42.5" stroke-miterlimit="10"/>
<path d="M695.985 2149.36L772.469 2235.55" stroke="#55C852" stroke-width="42.5" stroke-miterlimit="10"/>
<path d="M695.985 2427.88L824.089 2532.66L952.193 2427.88" stroke="#55C852" stroke-width="42.5" stroke-miterlimit="10"/>
<path d="M884.471 2049.06L932.777 2003.39" stroke="#55C852" stroke-width="42.5" stroke-miterlimit="10"/>
<path d="M716.587 2004.28L763.708 2048.84" stroke="#55C852" stroke-width="42.5" stroke-miterlimit="10"/>
<path d="M695.985 1846.66L824.089 1948.53L952.193 1846.66" stroke="#55C852" stroke-width="42.5" stroke-miterlimit="10"/>
<path d="M868.844 1786.22L952.194 1730.47" stroke="#55C852" stroke-width="42.5" stroke-miterlimit="10"/>
<path d="M695.985 1730.47L782.888 1788.45" stroke="#55C852" stroke-width="42.5" stroke-miterlimit="10"/>
<path d="M664.018 2405.05V2493.26L662.834 2587.74H592.743L579.957 2500.87L544.201 2503.11L561.723 2581.92L479.083 2583.71L465.823 2509.16L442.854 2513.19V2592H321.143L316.88 2488.34H292.728V2583.71H193.986L185.224 2500.87L153.494 2500.2L162.255 2583.27L1 2583.71" stroke="#55C852" stroke-width="42.5" stroke-miterlimit="10"/>
<path d="M664.018 2281V2323.99" stroke="#55C852" stroke-width="42.5" stroke-miterlimit="10"/>
<path d="M664.018 2098.99V2238.03" stroke="#55C852" stroke-width="42.5" stroke-miterlimit="10"/>
<path d="M664.018 2002.71V2048.38" stroke="#55C852" stroke-width="42.5" stroke-miterlimit="10"/>
<path d="M664.018 1833.23V1957.27" stroke="#55C852" stroke-width="42.5" stroke-miterlimit="10"/>
<path d="M985.344 1782.63V1717.25L937.749 1663.74H724.873L664.018 1732.25V1790.24" stroke="#55C852" stroke-width="42.5" stroke-miterlimit="10"/>
<path d="M985.344 1959.72V1825.61" stroke="#55C852" stroke-width="42.5" stroke-miterlimit="10"/>
<path d="M985.344 2053.31V1997.79" stroke="#55C852" stroke-width="42.5" stroke-miterlimit="10"/>
<path d="M985.344 2240.49V2091.38" stroke="#55C852" stroke-width="42.5" stroke-miterlimit="10"/>
<path d="M985.344 2326.69V2291.09" stroke="#55C852" stroke-width="42.5" stroke-miterlimit="10"/>
<path d="M1022.52 2581.47H985.344V2402.36" stroke="#55C852" stroke-width="42.5" stroke-miterlimit="10"/>
<path d="M621.396 1787.55H2287.94" stroke="#55C852" stroke-width="42.5" stroke-miterlimit="10"/>
<path d="M1266.42 2237.79L1345.03 2149.36" stroke="#55C852" stroke-width="42.5" stroke-miterlimit="10"/>
<path d="M1088.58 2149.36L1165.31 2235.55" stroke="#55C852" stroke-width="42.5" stroke-miterlimit="10"/>
<path d="M1088.58 2427.88L1216.69 2532.66L1345.03 2427.88" stroke="#55C852" stroke-width="42.5" stroke-miterlimit="10"/>
<path d="M1277.31 2049.06L1325.38 2003.39" stroke="#55C852" stroke-width="42.5" stroke-miterlimit="10"/>
<path d="M1109.19 2004.28L1156.31 2048.84" stroke="#55C852" stroke-width="42.5" stroke-miterlimit="10"/>
<path d="M1088.58 1846.66L1216.69 1948.53L1345.03 1846.66" stroke="#55C852" stroke-width="42.5" stroke-miterlimit="10"/>
<path d="M1261.68 1786.22L1345.03 1730.47" stroke="#55C852" stroke-width="42.5" stroke-miterlimit="10"/>
<path d="M1088.58 1730.47L1175.49 1788.45" stroke="#55C852" stroke-width="42.5" stroke-miterlimit="10"/>
<path d="M1056.62 2405.05V2493.26L1055.67 2587.74L985.344 2581.48" stroke="#55C852" stroke-width="42.5" stroke-miterlimit="10"/>
<path d="M1056.62 2281V2323.99" stroke="#55C852" stroke-width="42.5" stroke-miterlimit="10"/>
<path d="M1056.62 2098.99V2238.03" stroke="#55C852" stroke-width="42.5" stroke-miterlimit="10"/>
<path d="M1056.62 2002.71V2048.38" stroke="#55C852" stroke-width="42.5" stroke-miterlimit="10"/>
<path d="M1056.62 1833.23V1957.27" stroke="#55C852" stroke-width="42.5" stroke-miterlimit="10"/>
<path d="M1377.95 1782.63V1717.25L1330.59 1663.74H1117.71L1056.62 1732.25V1790.24" stroke="#55C852" stroke-width="42.5" stroke-miterlimit="10"/>
<path d="M1377.95 1959.72V1825.61" stroke="#55C852" stroke-width="42.5" stroke-miterlimit="10"/>
<path d="M1377.95 2053.31V1997.79" stroke="#55C852" stroke-width="42.5" stroke-miterlimit="10"/>
<path d="M1377.95 2240.49V2091.38" stroke="#55C852" stroke-width="42.5" stroke-miterlimit="10"/>
<path d="M1377.95 2326.69V2291.09" stroke="#55C852" stroke-width="42.5" stroke-miterlimit="10"/>
<path d="M1377.95 2402.36V2581.47H1415.12L1478.82 2546.32L1540.15 2543.63V2471.77L1566.67 2466.17L1569.51 2549.23H1628V2471.77L1657.12 2469.08V2549.23H1695.25V2471.77H1727.45L1724.37 2543.63L1809.14 2540.95L1797.54 2460.79L1829.74 2455.2L1844.19 2540.95H1955.48" stroke="#55C852" stroke-width="42.5" stroke-miterlimit="10"/>
<path d="M1921.86 465.023H2395.44V751.156" stroke="#55C852" stroke-width="42.5" stroke-miterlimit="10"/>
<path d="M1851.53 738.614H2263.78V684.656H2312.09V751.152H2618.97L2702.32 800.856V1493.13L2612.34 1578.21H2483.05L2425.99 1513.95V842.276L2312.09 792.572V751.152" stroke="#55C852" stroke-width="42.5" stroke-miterlimit="10"/>
<path d="M2329.61 1518.21V916.836H1877.81" stroke="#55C852" stroke-width="42.5" stroke-miterlimit="10"/>
<path d="M2434.75 925.121H2825.22V962.511" stroke="#55C852" stroke-width="42.5" stroke-miterlimit="10"/>
<path d="M2434.75 1165.57L2816.22 1136.69V1095.27" stroke="#55C852" stroke-width="42.5" stroke-miterlimit="10"/>
<path d="M2873.29 954.225H2763.65V1099.31H2873.29V954.225Z" stroke="#55C852" stroke-width="42.5" stroke-miterlimit="10"/>
<path d="M2425.99 1513.95H1939.38" stroke="#55C852" stroke-width="42.5" stroke-miterlimit="10"/>
<path d="M2483.05 1578.21V1733.82" stroke="#55C852" stroke-width="42.5" stroke-miterlimit="10"/>
<path d="M3829.22 2019.72H3728.34V2488.33H3829.22V2019.72Z" stroke="#55C852" stroke-width="42.5" stroke-miterlimit="10"/>
<path d="M3728.34 2405.49H1864.79" stroke="#55C852" stroke-width="42.5" stroke-miterlimit="10"/>
<path d="M3728.34 2019.71H3670.09V1750.37H3596.92V2347.27H3674.12V2086.21H3724.08" stroke="#55C852" stroke-width="42.5" stroke-miterlimit="10"/>
<path d="M3674.12 2086.22V2019.72" stroke="#55C852" stroke-width="42.5" stroke-miterlimit="10"/>
<path d="M3592.42 1787.54H1926.12" stroke="#55C852" stroke-width="42.5" stroke-miterlimit="10"/>
<path d="M3596.92 1829.19H1897.94" stroke="#55C852" stroke-width="42.5" stroke-miterlimit="10"/>
<path d="M3662.75 1957.7H3601.19H1934.88" stroke="#55C852" stroke-width="42.5" stroke-miterlimit="10"/>
<path d="M3596.92 1999.12H1921.86" stroke="#55C852" stroke-width="42.5" stroke-miterlimit="10"/>
<path d="M3601.19 2235.32H1908.6" stroke="#55C852" stroke-width="42.5" stroke-miterlimit="10"/>
<path d="M3596.92 2281.01H1913.1" stroke="#55C852" stroke-width="42.5" stroke-miterlimit="10"/>
<path d="M3601.19 2048.84H1881.37" stroke="#55C852" stroke-width="42.5" stroke-miterlimit="10"/>
<path d="M3596.92 2094.5H1943.64" stroke="#55C852" stroke-width="42.5" stroke-miterlimit="10"/>
<path d="M2351.64 1617.61H2255.26V1708.74H2351.64V1617.61Z" stroke="#55C852" stroke-width="42.5" stroke-miterlimit="10"/>
<path d="M2092.82 1509.92L2040.25 1389.47H1917.36" stroke="#55C852" stroke-width="42.5" stroke-miterlimit="10"/>
<path d="M3596.92 2322.65H1801.57" stroke="#55C852" stroke-width="42.5" stroke-miterlimit="10"/>
<path d="M2987.42 2237.79L2908.81 2149.36" stroke="#55C852" stroke-width="42.5" stroke-miterlimit="10"/>
<path d="M3165.01 2149.36L3088.53 2235.55" stroke="#55C852" stroke-width="42.5" stroke-miterlimit="10"/>
<path d="M3165.01 2427.88L3036.91 2532.66L2908.81 2427.88" stroke="#55C852" stroke-width="42.5" stroke-miterlimit="10"/>
<path d="M2976.53 2049.06L2928.22 2003.39" stroke="#55C852" stroke-width="42.5" stroke-miterlimit="10"/>
<path d="M3144.41 2004.28L3097.29 2048.84" stroke="#55C852" stroke-width="42.5" stroke-miterlimit="10"/>
<path d="M3165.01 1846.66L3036.91 1948.53L2908.81 1846.66" stroke="#55C852" stroke-width="42.5" stroke-miterlimit="10"/>
<path d="M2992.16 1786.22L2908.81 1730.47" stroke="#55C852" stroke-width="42.5" stroke-miterlimit="10"/>
<path d="M3165.01 1730.47L3078.11 1788.45" stroke="#55C852" stroke-width="42.5" stroke-miterlimit="10"/>
<path d="M3196.98 2405.05V2493.26L3198.17 2587.74H3268.49L3281.28 2500.87L3316.8 2503.11L3299.28 2581.92L3381.92 2583.71L3395.18 2509.16L3418.15 2513.19V2592H3539.86L3544.36 2488.34H3568.27V2583.71H3667.01L3675.78 2500.87L3707.51 2500.2L3698.74 2583.27L3860 2583.71" stroke="#55C852" stroke-width="42.5" stroke-miterlimit="10"/>
<path d="M3196.98 2281V2323.99" stroke="#55C852" stroke-width="42.5" stroke-miterlimit="10"/>
<path d="M3196.98 2098.99V2238.03" stroke="#55C852" stroke-width="42.5" stroke-miterlimit="10"/>
<path d="M3196.98 2002.71V2048.38" stroke="#55C852" stroke-width="42.5" stroke-miterlimit="10"/>
<path d="M3196.98 1833.23V1957.27" stroke="#55C852" stroke-width="42.5" stroke-miterlimit="10"/>
<path d="M2875.66 1782.63V1717.25L2923.25 1663.74H3136.13L3196.98 1732.25V1790.24" stroke="#55C852" stroke-width="42.5" stroke-miterlimit="10"/>
<path d="M2875.66 1959.72V1825.61" stroke="#55C852" stroke-width="42.5" stroke-miterlimit="10"/>
<path d="M2875.66 2053.31V1997.79" stroke="#55C852" stroke-width="42.5" stroke-miterlimit="10"/>
<path d="M2875.66 2240.49V2091.38" stroke="#55C852" stroke-width="42.5" stroke-miterlimit="10"/>
<path d="M2875.66 2326.69V2291.09" stroke="#55C852" stroke-width="42.5" stroke-miterlimit="10"/>
<path d="M2838.48 2581.47H2875.66V2402.36" stroke="#55C852" stroke-width="42.5" stroke-miterlimit="10"/>
<path d="M3239.6 1787.55H1573.3" stroke="#55C852" stroke-width="42.5" stroke-miterlimit="10"/>
<path d="M2594.58 2237.79L2516.21 2149.36" stroke="#55C852" stroke-width="42.5" stroke-miterlimit="10"/>
<path d="M2772.41 2149.36L2695.93 2235.55" stroke="#55C852" stroke-width="42.5" stroke-miterlimit="10"/>
<path d="M2772.41 2427.88L2644.31 2532.66L2516.21 2427.88" stroke="#55C852" stroke-width="42.5" stroke-miterlimit="10"/>
<path d="M2583.93 2049.06L2535.62 2003.39" stroke="#55C852" stroke-width="42.5" stroke-miterlimit="10"/>
<path d="M2751.81 2004.28L2704.69 2048.84" stroke="#55C852" stroke-width="42.5" stroke-miterlimit="10"/>
<path d="M2772.41 1846.66L2644.31 1948.53L2516.21 1846.66" stroke="#55C852" stroke-width="42.5" stroke-miterlimit="10"/>
<path d="M2599.56 1786.22L2516.21 1730.47" stroke="#55C852" stroke-width="42.5" stroke-miterlimit="10"/>
<path d="M2772.41 1730.47L2685.51 1788.45" stroke="#55C852" stroke-width="42.5" stroke-miterlimit="10"/>
<path d="M2804.38 2405.05V2493.26L2805.56 2587.74L2875.66 2581.48" stroke="#55C852" stroke-width="42.5" stroke-miterlimit="10"/>
<path d="M2804.38 2281V2323.99" stroke="#55C852" stroke-width="42.5" stroke-miterlimit="10"/>
<path d="M2804.38 2098.99V2238.03" stroke="#55C852" stroke-width="42.5" stroke-miterlimit="10"/>
<path d="M2804.38 2002.71V2048.38" stroke="#55C852" stroke-width="42.5" stroke-miterlimit="10"/>
<path d="M2804.38 1833.23V1957.27" stroke="#55C852" stroke-width="42.5" stroke-miterlimit="10"/>
<path d="M2483.05 1782.63V1717.25L2530.65 1663.74H2743.53L2804.38 1732.25V1790.24" stroke="#55C852" stroke-width="42.5" stroke-miterlimit="10"/>
<path d="M2483.05 1959.72V1825.61" stroke="#55C852" stroke-width="42.5" stroke-miterlimit="10"/>
<path d="M2483.05 2053.31V1997.79" stroke="#55C852" stroke-width="42.5" stroke-miterlimit="10"/>
<path d="M2483.05 2240.49V2091.38" stroke="#55C852" stroke-width="42.5" stroke-miterlimit="10"/>
<path d="M2483.05 2326.69V2291.09" stroke="#55C852" stroke-width="42.5" stroke-miterlimit="10"/>
<path d="M2483.05 2402.36V2581.47H2445.88L2382.18 2546.32L2320.85 2543.63V2471.77L2294.57 2466.17L2291.49 2549.23H2233V2471.77L2203.88 2469.08V2549.23H2165.75V2471.77H2133.79L2136.63 2543.63L2051.85 2540.95L2063.46 2460.79L2031.49 2455.2L2016.81 2540.95H1905.75" stroke="#55C852" stroke-width="42.5" stroke-miterlimit="10"/>
<path d="M1423.17 2230.86V2163.47L1489.71 2206.9H2383.13L2438.3 2150.48V2235.12" stroke="#55C852" stroke-width="42.5" stroke-miterlimit="10"/>
<path d="M1242.03 751.152H369.448L198.484 921.086L312.382 1016.46L444.038 904.518H1154.41" stroke="#55C852" stroke-width="42.5" stroke-miterlimit="10"/>
<path d="M1402.81 751.154L965.691 361.36L1014 332.254L1465.8 751.154" stroke="#55C852" stroke-width="42.5" stroke-miterlimit="10"/>
<path d="M2449.43 751.154L2886.55 361.36L2838.24 332.254L2386.68 751.154" stroke="#55C852" stroke-width="42.5" stroke-miterlimit="10"/>
<path d="M2809.85 192.706C2863.88 162.369 2939.52 157.244 3001.87 183.892C3064.21 210.539 3096.07 261.579 3087.76 311.39" stroke="#55C852" stroke-width="42.5" stroke-miterlimit="10" stroke-linecap="round" stroke-linejoin="round"/>
<path d="M2676.37 110.691C2784.72 40.9834 2935.75 28.9322 3060.73 90.3695C3185.7 151.807 3249.16 269.483 3232.26 384.323" stroke="#55C852" stroke-width="42.5" stroke-miterlimit="10" stroke-linecap="round" stroke-linejoin="round"/>
<path d="M1044.81 170.46C990.782 140.123 915.137 134.998 852.794 161.645C790.451 188.293 758.588 239.333 766.9 289.143" stroke="#55C852" stroke-width="42.5" stroke-miterlimit="10" stroke-linecap="round" stroke-linejoin="round"/>
<path d="M1165.97 74.1225C1057.63 13.6532 906.621 3.19915 781.658 56.4941C656.694 109.789 593.243 211.869 610.145 311.49" stroke="#55C852" stroke-width="42.5" stroke-miterlimit="10" stroke-linecap="round" stroke-linejoin="round"/>
</svg>
