<svg width="40" height="41" viewBox="0 0 40 41" fill="none" xmlns="http://www.w3.org/2000/svg">
<path d="M6.7271 15.799C7.44955 15.8032 8.16481 15.6727 8.82585 15.4162L13.3305 19.4472C13.9827 18.6808 14.7791 18.0182 15.6852 17.488L11.2317 13.5471C11.6309 12.9455 11.8427 12.262 11.846 11.5654C11.7993 10.4105 11.2344 9.31892 10.275 8.52967C9.31559 7.74041 8.03987 7.31776 6.7271 7.35423C5.41432 7.31776 4.1386 7.74041 3.17921 8.52967C2.21982 9.31892 1.65492 10.4105 1.60818 11.5654C1.62804 12.1392 1.77624 12.7039 2.04429 13.2273C2.31235 13.7507 2.69502 14.2224 3.17041 14.6156C3.64581 15.0088 4.20462 15.3157 4.8149 15.5188C5.42518 15.7218 6.07496 15.8171 6.7271 15.799ZM6.7271 10.1692C7.19038 10.1374 7.64956 10.2653 8.00772 10.5258C8.36587 10.7863 8.59498 11.1591 8.64669 11.5654C8.60118 11.9758 8.37473 12.3541 8.01589 12.6193C7.65704 12.8846 7.19438 13.0155 6.7271 12.9841C6.25981 13.0155 5.79715 12.8846 5.4383 12.6193C5.07946 12.3541 4.85301 11.9758 4.8075 11.5654C4.85921 11.1591 5.08832 10.7863 5.44647 10.5258C5.80463 10.2653 6.26381 10.1374 6.7271 10.1692ZM34.8811 32.1257C34.1587 32.1215 33.4434 32.252 32.7824 32.5085L27.8341 27.8857C27.1676 28.6299 26.8064 29.8387 25.8974 30.3466L30.3509 34.265C29.9596 34.8684 29.7565 35.552 29.7622 36.2467C29.7622 37.4412 30.3015 38.5868 31.2615 39.4315C32.2215 40.2761 33.5235 40.7506 34.8811 40.7506C36.2387 40.7506 37.5407 40.2761 38.5007 39.4315C39.4607 38.5868 40 37.4412 40 36.2467C39.9272 35.1078 39.3509 34.0391 38.3944 33.269C37.4379 32.4989 36.1769 32.0886 34.8811 32.1257ZM34.8811 37.7555C34.4138 37.7869 33.9512 37.656 33.5923 37.3908C33.2335 37.1256 33.007 36.7472 32.9615 36.3368C33.0361 35.9362 33.2701 35.572 33.6217 35.3092C33.9734 35.0463 34.4197 34.902 34.8811 34.902C35.3425 34.902 35.7888 35.0463 36.1405 35.3092C36.4921 35.572 36.7261 35.9362 36.8007 36.3368C36.7552 36.7472 36.5287 37.1256 36.1699 37.3908C35.8111 37.656 35.3484 37.7869 34.8811 37.7555Z" fill="black"/>
<path d="M28.5492 24.1686C28.5511 22.1399 28.0453 20.1655 27.1081 18.5441L30.7243 13.8747C31.4315 14.2573 32.1881 14.4614 32.9539 14.476C33.6467 14.5043 34.3369 14.3547 34.9853 14.0358C35.6336 13.7168 36.2272 13.2347 36.7322 12.6171C37.2373 11.9994 37.6438 11.2584 37.9285 10.4362C38.2133 9.61408 38.3707 8.72697 38.3918 7.82562C38.3918 5.94925 37.8189 4.14972 36.7991 2.82292C35.7793 1.49612 34.3961 0.750732 32.9539 0.750732C31.5117 0.750732 30.1285 1.49612 29.1087 2.82292C28.0889 4.14972 27.516 5.94925 27.516 7.82562C27.5194 8.91985 27.7445 9.99356 28.1685 10.9386L24.5523 15.6434C23.2811 14.7177 21.849 14.2306 20.3923 14.2284C18.5936 14.1962 16.8372 14.9383 15.3964 16.3394C13.9556 17.7405 12.9112 19.722 12.4257 21.9754H10.5496C10.139 20.6543 9.43126 19.5254 8.51917 18.7364C7.60709 17.9474 6.53314 17.5352 5.43794 17.5536C4.04335 17.4963 2.68812 18.1602 1.66894 19.4C0.649753 20.6398 0.0496502 22.3545 0 24.1686C0.0210951 25.07 0.178524 25.9571 0.463288 26.7792C0.748051 27.6014 1.15457 28.3424 1.65959 28.9601C2.16462 29.5777 2.75826 30.0598 3.40657 30.3788C4.05488 30.6977 4.74516 30.8473 5.43794 30.819C6.53314 30.8375 7.60709 30.4252 8.51917 29.6362C9.43126 28.8472 10.139 27.7183 10.5496 26.3972H12.4257C12.9112 28.6507 13.9556 30.6321 15.3964 32.0332C16.8372 33.4343 18.5936 34.1765 20.3923 34.1442C21.4314 34.1867 22.4668 33.9623 23.4393 33.4838C24.4118 33.0054 25.3022 32.2822 26.0598 31.3558C26.8173 30.4294 27.4271 29.3177 27.8542 28.0845C28.2814 26.8513 28.5175 25.5206 28.5492 24.1686ZM32.9539 5.63241C33.4476 5.57326 33.9392 5.77075 34.3213 6.18171C34.7034 6.59266 34.9449 7.18368 34.9931 7.82562C34.9139 8.4549 34.6653 9.02705 34.2917 9.43989C33.9182 9.85274 33.444 10.0794 32.9539 10.0794C32.4638 10.0794 31.9896 9.85274 31.616 9.43989C31.2425 9.02705 30.9939 8.4549 30.9147 7.82562C30.9696 7.18736 31.213 6.60183 31.5935 6.19262C31.9739 5.78342 32.4617 5.58254 32.9539 5.63241ZM5.43794 26.3972C4.94153 26.4465 4.45003 26.2408 4.06882 25.8242C3.68761 25.4076 3.44705 24.8133 3.39871 24.1686C3.45364 23.5304 3.69702 22.9448 4.0775 22.5356C4.45798 22.1264 4.94578 21.9255 5.43794 21.9754C5.9301 21.9255 6.41789 22.1264 6.79837 22.5356C7.17885 22.9448 7.42223 23.5304 7.47716 24.1686C7.42882 24.8133 7.18826 25.4076 6.80705 25.8242C6.42584 26.2408 5.93434 26.4465 5.43794 26.3972ZM20.3923 29.7224C19.1966 29.7997 18.0258 29.2595 17.1347 28.2194C16.2436 27.1793 15.7043 25.7235 15.6341 24.1686C15.7042 22.6167 16.2444 21.1643 17.1364 20.1298C18.0284 19.0953 19.1992 18.5632 20.3923 18.6502C21.5835 18.5726 22.7504 19.108 23.6407 20.1406C24.5311 21.1732 25.0734 22.6201 25.1505 24.1686C25.0734 25.7201 24.532 27.1706 23.6425 28.2088C22.753 29.247 21.5861 29.7904 20.3923 29.7224Z" fill="black"/>
</svg>
