<svg width="67" height="48" viewBox="0 0 67 48" fill="none" xmlns="http://www.w3.org/2000/svg">
<path d="M42.0001 25.5C42.0001 31.4067 37.4172 36 32.0001 36C26.5829 36 22.0001 31.4067 22.0001 25.5C22.0001 19.5933 26.5829 15 32.0001 15C37.4172 15 42.0001 19.5933 42.0001 25.5Z" fill="white" stroke="black" stroke-width="6"/>
<path d="M42.0852 27L55.2406 34.2066L53.1555 38.0129L40.0001 30.8063L42.0852 27Z" fill="black"/>
<path d="M12.0666 7.87575L25.222 15.0823L23.1377 18.8872L9.98229 11.6806L12.0666 7.87575Z" fill="black"/>
<path d="M15.123 6.30251C17.2638 7.66633 17.9492 10.6682 16.4252 13.0605C14.9011 15.4528 11.8909 16.1003 9.75008 14.7364C7.6093 13.3726 6.92388 10.3707 8.44793 7.97846C9.97197 5.58617 12.9823 4.9387 15.123 6.30251Z" fill="#FFFEFE" stroke="black" stroke-width="4"/>
<path d="M59.5537 33.6151C61.5924 35.1273 62.0633 38.1702 60.3735 40.4484C58.6837 42.7267 55.635 43.1591 53.5963 41.6469C51.5576 40.1348 51.0868 37.0918 52.7766 34.8136C54.4664 32.5354 57.515 32.103 59.5537 33.6151Z" fill="#FFFEFE" stroke="black" stroke-width="4"/>
<path d="M37.0001 18.4983L49.3261 9.95022L51.7993 13.5165L39.4733 22.0646L37.0001 18.4983Z" fill="black"/>
<path d="M49.7252 5.35991C51.8487 3.96929 54.8669 4.57886 56.4209 6.9518C57.9749 9.32475 57.3272 12.335 55.2038 13.7256C53.0803 15.1162 50.0621 14.5067 48.5081 12.1337C46.9541 9.76079 47.6018 6.75052 49.7252 5.35991Z" fill="#FFFEFE" stroke="black" stroke-width="4"/>
<path d="M23.9976 31.5815L12 31.3392L12.0877 27.0001L24.0852 27.2424L23.9976 31.5815Z" fill="black"/>
<path d="M6.95944 33.9057C4.45246 33.5083 2.62726 31.0284 3.07141 28.2269C3.51555 25.4254 6.01827 23.6316 8.52525 24.0291C11.0322 24.4265 12.8574 26.9064 12.4133 29.7079C11.9691 32.5094 9.46641 34.3032 6.95944 33.9057Z" fill="#FFFEFE" stroke="black" stroke-width="4"/>
</svg>
