<svg width="2934" height="2614" viewBox="0 0 2934 2614" fill="none" xmlns="http://www.w3.org/2000/svg">
<path d="M962.87 1320.52V1259.93L1122.15 1148.94" stroke="#55C852" stroke-width="42.5" stroke-miterlimit="10"/>
<path d="M1122.15 1148.94H1858.88L2022.12 1243.08V1313.68" stroke="#55C852" stroke-width="42.5" stroke-miterlimit="10"/>
<path d="M1747.42 1148.94L1930.42 1256.6V1320.52" stroke="#55C852" stroke-width="42.5" stroke-miterlimit="10"/>
<path d="M1882.79 1229.72H1400.99L1444.67 1306.99" stroke="#55C852" stroke-width="42.5" stroke-miterlimit="10"/>
<path d="M1603.95 1233.06L1508.5 1148.94" stroke="#55C852" stroke-width="42.5" stroke-miterlimit="10"/>
<path d="M907.142 814.968C926.897 814.968 942.911 801.443 942.911 784.759C942.911 768.074 926.897 754.549 907.142 754.549C887.387 754.549 871.373 768.074 871.373 784.759C871.373 801.443 887.387 814.968 907.142 814.968Z" stroke="#55C852" stroke-width="42.5" stroke-miterlimit="10"/>
<path d="M907.142 1116.73C1124.23 1116.73 1300.21 968.098 1300.21 784.754C1300.21 601.411 1124.23 452.781 907.142 452.781C690.057 452.781 514.075 601.411 514.075 784.754C514.075 968.098 690.057 1116.73 907.142 1116.73Z" stroke="#55C852" stroke-width="42.5" stroke-miterlimit="10"/>
<path d="M1815.01 1148.94L2030.02 875.547L2109.66 889.066L2169.34 821.804L2069.94 700.631L1930.42 737.684L1926.47 808.284L1465.62 1148.94" stroke="#55C852" stroke-width="42.5" stroke-miterlimit="10"/>
<path d="M2030.02 814.968C2049.77 814.968 2065.79 801.443 2065.79 784.759C2065.79 768.074 2049.77 754.549 2030.02 754.549C2010.27 754.549 1994.25 768.074 1994.25 784.759C1994.25 801.443 2010.27 814.968 2030.02 814.968Z" stroke="#55C852" stroke-width="42.5" stroke-miterlimit="10"/>
<path d="M2418.15 837.927C2452.93 656.949 2307.41 486.426 2093.13 457.055C1878.84 427.683 1676.94 550.585 1642.16 731.563C1607.38 912.542 1752.9 1083.06 1967.19 1112.44C2181.47 1141.81 2383.38 1018.91 2418.15 837.927Z" stroke="#55C852" stroke-width="42.5" stroke-miterlimit="10"/>
<path d="M1122.15 1148.94L907.142 875.547L827.501 889.066L767.819 821.804L867.42 700.631L1006.74 737.684L1010.69 808.284L1465.62 1148.94" stroke="#55C852" stroke-width="42.5" stroke-miterlimit="10"/>
<path d="M962.87 1293.65V1354.07L1122.15 1465.06" stroke="#55C852" stroke-width="42.5" stroke-miterlimit="10"/>
<path d="M1122.15 1465.06L907.142 1738.45L827.501 1725.09L767.819 1792.36L867.42 1913.36L1006.74 1876.31L1010.69 1805.71L1465.62 1465.06" stroke="#55C852" stroke-width="42.5" stroke-miterlimit="10"/>
<path d="M1122.15 1465.06H1858.88L2022.12 1370.92V1300.32" stroke="#55C852" stroke-width="42.5" stroke-miterlimit="10"/>
<path d="M1747.42 1465.06L1930.42 1357.41V1293.65" stroke="#55C852" stroke-width="42.5" stroke-miterlimit="10"/>
<path d="M1882.79 1384.44H1400.99L1444.67 1307" stroke="#55C852" stroke-width="42.5" stroke-miterlimit="10"/>
<path d="M1603.95 1380.94L1508.5 1465.06" stroke="#55C852" stroke-width="42.5" stroke-miterlimit="10"/>
<path d="M907.142 1859.45C926.897 1859.45 942.911 1845.93 942.911 1829.24C942.911 1812.56 926.897 1799.04 907.142 1799.04C887.387 1799.04 871.373 1812.56 871.373 1829.24C871.373 1845.93 887.387 1859.45 907.142 1859.45Z" stroke="#55C852" stroke-width="42.5" stroke-miterlimit="10"/>
<path d="M907.142 2161.21C1124.23 2161.21 1300.21 2012.58 1300.21 1829.24C1300.21 1645.9 1124.23 1497.27 907.142 1497.27C690.057 1497.27 514.075 1645.9 514.075 1829.24C514.075 2012.58 690.057 2161.21 907.142 2161.21Z" stroke="#55C852" stroke-width="42.5" stroke-miterlimit="10"/>
<path d="M1815.01 1465.06L2030.02 1738.45L2109.66 1725.09L2169.34 1792.36L2069.94 1913.36L1930.42 1876.31L1926.47 1805.71L1465.62 1465.06" stroke="#55C852" stroke-width="42.5" stroke-miterlimit="10"/>
<path d="M2030.02 1859.45C2049.77 1859.45 2065.79 1845.93 2065.79 1829.24C2065.79 1812.56 2049.77 1799.04 2030.02 1799.04C2010.27 1799.04 1994.25 1812.56 1994.25 1829.24C1994.25 1845.93 2010.27 1859.45 2030.02 1859.45Z" stroke="#55C852" stroke-width="42.5" stroke-miterlimit="10"/>
<path d="M2421.89 1856.68C2439.8 1673.96 2278.93 1513.57 2062.58 1498.45C1846.24 1483.32 1656.34 1619.18 1638.43 1801.9C1620.52 1984.62 1781.38 2145.01 1997.73 2160.13C2214.08 2175.26 2403.98 2039.4 2421.89 1856.68Z" stroke="#55C852" stroke-width="42.5" stroke-miterlimit="10"/>
<path d="M548.065 1441.69L338.192 1748.79" stroke="#55C852" stroke-width="42.5" stroke-miterlimit="10" stroke-linecap="round" stroke-linejoin="round" stroke-dasharray="5 5"/>
<path d="M471.191 1378.93L107.569 1556.19" stroke="#55C852" stroke-width="42.5" stroke-miterlimit="10" stroke-linecap="round" stroke-linejoin="round" stroke-dasharray="5 5"/>
<path d="M441.746 1291.97H22" stroke="#55C852" stroke-width="42.5" stroke-miterlimit="10" stroke-linecap="round" stroke-linejoin="round" stroke-dasharray="5 5"/>
<path d="M467.832 1204.35L104.21 1027.1" stroke="#55C852" stroke-width="42.5" stroke-miterlimit="10" stroke-linecap="round" stroke-linejoin="round" stroke-dasharray="5 5"/>
<path d="M542.137 1139.43L332.264 832.326" stroke="#55C852" stroke-width="42.5" stroke-miterlimit="10" stroke-linecap="round" stroke-linejoin="round" stroke-dasharray="5 5"/>
<path d="M1663.43 2147.7L2027.06 2325.12" stroke="#55C852" stroke-width="42.5" stroke-miterlimit="10" stroke-linecap="round" stroke-linejoin="round" stroke-dasharray="5 5"/>
<path d="M1589.13 2212.62L1799 2519.73" stroke="#55C852" stroke-width="42.5" stroke-miterlimit="10" stroke-linecap="round" stroke-linejoin="round" stroke-dasharray="5 5"/>
<path d="M1486.17 2237.5V2592" stroke="#55C852" stroke-width="42.5" stroke-miterlimit="10" stroke-linecap="round" stroke-linejoin="round" stroke-dasharray="5 5"/>
<path d="M1382.42 2215.63L1172.55 2522.56" stroke="#55C852" stroke-width="42.5" stroke-miterlimit="10" stroke-linecap="round" stroke-linejoin="round" stroke-dasharray="5 5"/>
<path d="M1305.54 2152.7L941.923 2329.95" stroke="#55C852" stroke-width="42.5" stroke-miterlimit="10" stroke-linecap="round" stroke-linejoin="round" stroke-dasharray="5 5"/>
<path d="M1663.43 466.297L2027.06 289.045" stroke="#55C852" stroke-width="42.5" stroke-miterlimit="10" stroke-linecap="round" stroke-linejoin="round" stroke-dasharray="5 5"/>
<path d="M1589.13 401.374L1799 94.2695" stroke="#55C852" stroke-width="42.5" stroke-miterlimit="10" stroke-linecap="round" stroke-linejoin="round" stroke-dasharray="5 5"/>
<path d="M1486.17 376.505V22" stroke="#55C852" stroke-width="42.5" stroke-miterlimit="10" stroke-linecap="round" stroke-linejoin="round" stroke-dasharray="5 5"/>
<path d="M1382.42 398.538L1172.55 91.4336" stroke="#55C852" stroke-width="42.5" stroke-miterlimit="10" stroke-linecap="round" stroke-linejoin="round" stroke-dasharray="5 5"/>
<path d="M1305.54 461.297L941.923 284.045" stroke="#55C852" stroke-width="42.5" stroke-miterlimit="10" stroke-linecap="round" stroke-linejoin="round" stroke-dasharray="5 5"/>
<path d="M2631.97 1670.35C2698.77 1566.37 2736.91 1447.2 2736.91 1320.68C2736.91 1173.64 2685.72 1036.61 2597.39 921.781" stroke="#55C852" stroke-width="42.5" stroke-miterlimit="10" stroke-linecap="round" stroke-linejoin="round"/>
<path d="M2786.71 1739.95C2866.55 1615.77 2912 1473.4 2912 1322.02C2912 1146.27 2850.74 982.534 2745.21 845.172" stroke="#55C852" stroke-width="42.5" stroke-miterlimit="10" stroke-linecap="round" stroke-linejoin="round"/>
</svg>
