<svg width="2819" height="1847" viewBox="0 0 2819 1847" fill="none" xmlns="http://www.w3.org/2000/svg">
<path d="M925.431 932.985V890.48L1078.37 812.613" stroke="black" stroke-width="42.5" stroke-miterlimit="10"/>
<path d="M1078.37 812.613H1785.79L1942.53 878.654V928.184" stroke="black" stroke-width="42.5" stroke-miterlimit="10"/>
<path d="M1678.76 812.613L1854.48 888.138V932.985" stroke="black" stroke-width="42.5" stroke-miterlimit="10"/>
<path d="M1808.75 869.281H1346.12L1388.06 923.495" stroke="black" stroke-width="42.5" stroke-miterlimit="10"/>
<path d="M1541 871.628L1449.35 812.613" stroke="black" stroke-width="42.5" stroke-miterlimit="10"/>
<path d="M871.92 578.311C890.889 578.311 906.266 568.823 906.266 557.118C906.266 545.413 890.889 535.924 871.92 535.924C852.951 535.924 837.574 545.413 837.574 557.118C837.574 568.823 852.951 578.311 871.92 578.311Z" stroke="black" stroke-width="42.5" stroke-miterlimit="10"/>
<path d="M871.92 790.012C1080.37 790.012 1249.35 685.741 1249.35 557.115C1249.35 428.489 1080.37 324.217 871.92 324.217C663.473 324.217 494.494 428.489 494.494 557.115C494.494 685.741 663.473 790.012 871.92 790.012Z" stroke="black" stroke-width="42.5" stroke-miterlimit="10"/>
<path d="M1743.66 812.609L1950.12 620.811L2026.59 630.296L2083.89 583.107L1988.45 498.098L1854.48 524.092L1850.68 573.623L1408.17 812.609" stroke="black" stroke-width="42.5" stroke-miterlimit="10"/>
<path d="M1950.12 578.311C1969.08 578.311 1984.46 568.823 1984.46 557.118C1984.46 545.413 1969.08 535.924 1950.12 535.924C1931.15 535.924 1915.77 545.413 1915.77 557.118C1915.77 568.823 1931.15 578.311 1950.12 578.311Z" stroke="black" stroke-width="42.5" stroke-miterlimit="10"/>
<path d="M2322.8 594.42C2356.2 467.454 2216.47 347.823 2010.71 327.217C1804.95 306.611 1611.08 392.833 1577.69 519.8C1544.3 646.766 1684.03 766.398 1889.78 787.004C2095.54 807.609 2289.41 721.387 2322.8 594.42Z" stroke="black" stroke-width="42.5" stroke-miterlimit="10"/>
<path d="M1078.37 812.609L871.92 620.811L795.448 630.296L738.141 583.107L833.779 498.098L967.557 524.092L971.352 573.623L1408.17 812.609" stroke="black" stroke-width="42.5" stroke-miterlimit="10"/>
<path d="M925.431 914.133V956.52L1078.37 1034.39" stroke="black" stroke-width="42.5" stroke-miterlimit="10"/>
<path d="M1078.37 1034.38L871.92 1226.18L795.448 1216.82L738.141 1264L833.779 1348.9L967.557 1322.9L971.352 1273.37L1408.17 1034.38" stroke="black" stroke-width="42.5" stroke-miterlimit="10"/>
<path d="M1078.37 1034.39H1785.79L1942.53 968.347V918.816" stroke="black" stroke-width="42.5" stroke-miterlimit="10"/>
<path d="M1678.76 1034.39L1854.48 958.862V914.133" stroke="black" stroke-width="42.5" stroke-miterlimit="10"/>
<path d="M1808.75 977.831H1346.12L1388.06 923.5" stroke="black" stroke-width="42.5" stroke-miterlimit="10"/>
<path d="M1541 975.371L1449.35 1034.39" stroke="black" stroke-width="42.5" stroke-miterlimit="10"/>
<path d="M871.92 1311.08C890.889 1311.08 906.266 1301.59 906.266 1289.88C906.266 1278.18 890.889 1268.69 871.92 1268.69C852.951 1268.69 837.574 1278.18 837.574 1289.88C837.574 1301.59 852.951 1311.08 871.92 1311.08Z" stroke="black" stroke-width="42.5" stroke-miterlimit="10"/>
<path d="M871.92 1522.78C1080.37 1522.78 1249.35 1418.51 1249.35 1289.88C1249.35 1161.25 1080.37 1056.98 871.92 1056.98C663.473 1056.98 494.494 1161.25 494.494 1289.88C494.494 1418.51 663.473 1522.78 871.92 1522.78Z" stroke="black" stroke-width="42.5" stroke-miterlimit="10"/>
<path d="M1743.66 1034.38L1950.12 1226.18L2026.59 1216.82L2083.89 1264L1988.45 1348.9L1854.48 1322.9L1850.68 1273.37L1408.17 1034.38" stroke="black" stroke-width="42.5" stroke-miterlimit="10"/>
<path d="M1950.12 1311.08C1969.08 1311.08 1984.46 1301.59 1984.46 1289.88C1984.46 1278.18 1969.08 1268.69 1950.12 1268.69C1931.15 1268.69 1915.77 1278.18 1915.77 1289.88C1915.77 1301.59 1931.15 1311.08 1950.12 1311.08Z" stroke="black" stroke-width="42.5" stroke-miterlimit="10"/>
<path d="M2326.39 1309.13C2343.59 1180.94 2189.12 1068.42 1981.38 1057.81C1773.65 1047.2 1591.3 1142.51 1574.1 1270.7C1556.91 1398.89 1711.37 1511.41 1919.11 1522.02C2126.85 1532.63 2309.19 1437.32 2326.39 1309.13Z" stroke="black" stroke-width="42.5" stroke-miterlimit="10"/>
<path d="M527.132 1017.99L325.61 1233.44" stroke="black" stroke-width="42.5" stroke-miterlimit="10" stroke-linecap="round" stroke-linejoin="round" stroke-dasharray="5 5"/>
<path d="M453.317 973.965L104.164 1098.32" stroke="black" stroke-width="42.5" stroke-miterlimit="10" stroke-linecap="round" stroke-linejoin="round" stroke-dasharray="5 5"/>
<path d="M425.043 912.959H22" stroke="black" stroke-width="42.5" stroke-miterlimit="10" stroke-linecap="round" stroke-linejoin="round" stroke-dasharray="5 5"/>
<path d="M450.091 851.483L100.939 727.131" stroke="black" stroke-width="42.5" stroke-miterlimit="10" stroke-linecap="round" stroke-linejoin="round" stroke-dasharray="5 5"/>
<path d="M521.44 805.939L319.918 590.488" stroke="black" stroke-width="42.5" stroke-miterlimit="10" stroke-linecap="round" stroke-linejoin="round" stroke-dasharray="5 5"/>
<path d="M1598.12 1513.3L1947.27 1637.77" stroke="black" stroke-width="42.5" stroke-miterlimit="10" stroke-linecap="round" stroke-linejoin="round" stroke-dasharray="5 5"/>
<path d="M1526.77 1558.85L1728.29 1774.3" stroke="black" stroke-width="42.5" stroke-miterlimit="10" stroke-linecap="round" stroke-linejoin="round" stroke-dasharray="5 5"/>
<path d="M1427.91 1576.29V1825" stroke="black" stroke-width="42.5" stroke-miterlimit="10" stroke-linecap="round" stroke-linejoin="round" stroke-dasharray="5 5"/>
<path d="M1328.28 1560.95L1126.76 1776.29" stroke="black" stroke-width="42.5" stroke-miterlimit="10" stroke-linecap="round" stroke-linejoin="round" stroke-dasharray="5 5"/>
<path d="M1254.47 1516.81L905.317 1641.16" stroke="black" stroke-width="42.5" stroke-miterlimit="10" stroke-linecap="round" stroke-linejoin="round" stroke-dasharray="5 5"/>
<path d="M1598.12 333.7L1947.27 209.348" stroke="black" stroke-width="42.5" stroke-miterlimit="10" stroke-linecap="round" stroke-linejoin="round" stroke-dasharray="5 5"/>
<path d="M1526.77 288.152L1728.29 72.7012" stroke="black" stroke-width="42.5" stroke-miterlimit="10" stroke-linecap="round" stroke-linejoin="round" stroke-dasharray="5 5"/>
<path d="M1427.91 270.705V22" stroke="black" stroke-width="42.5" stroke-miterlimit="10" stroke-linecap="round" stroke-linejoin="round" stroke-dasharray="5 5"/>
<path d="M1328.28 286.162L1126.76 70.7109" stroke="black" stroke-width="42.5" stroke-miterlimit="10" stroke-linecap="round" stroke-linejoin="round" stroke-dasharray="5 5"/>
<path d="M1254.47 330.192L905.317 205.84" stroke="black" stroke-width="42.5" stroke-miterlimit="10" stroke-linecap="round" stroke-linejoin="round" stroke-dasharray="5 5"/>
<path d="M2528.11 1178.41C2592.25 1105.46 2628.87 1021.86 2628.87 933.1C2628.87 829.941 2579.73 733.808 2494.91 653.248" stroke="black" stroke-width="42.5" stroke-miterlimit="10" stroke-linecap="round" stroke-linejoin="round"/>
<path d="M2676.69 1227.24C2753.36 1140.12 2797 1040.24 2797 934.036C2797 810.738 2738.18 695.869 2636.85 599.502" stroke="black" stroke-width="42.5" stroke-miterlimit="10" stroke-linecap="round" stroke-linejoin="round"/>
</svg>
