<svg width="30" height="30" viewBox="0 0 30 30" fill="none" xmlns="http://www.w3.org/2000/svg">
<path d="M26.6667 4.6875C27.125 4.6875 27.5 5.10937 27.5 5.625V24.375C27.5 24.8906 27.125 25.3125 26.6667 25.3125H3.33333C2.875 25.3125 2.5 24.8906 2.5 24.375V5.625C2.5 5.10937 2.875 4.6875 3.33333 4.6875H26.6667ZM3.33333 1.875C1.49479 1.875 0 3.55664 0 5.625V24.375C0 26.4434 1.49479 28.125 3.33333 28.125H26.6667C28.5052 28.125 30 26.4434 30 24.375V5.625C30 3.55664 28.5052 1.875 26.6667 1.875H3.33333ZM10.8333 15C11.7174 15 12.5652 14.6049 13.1904 13.9017C13.8155 13.1984 14.1667 12.2446 14.1667 11.25C14.1667 10.2554 13.8155 9.30161 13.1904 8.59835C12.5652 7.89509 11.7174 7.5 10.8333 7.5C9.94928 7.5 9.10143 7.89509 8.47631 8.59835C7.85119 9.30161 7.5 10.2554 7.5 11.25C7.5 12.2446 7.85119 13.1984 8.47631 13.9017C9.10143 14.6049 9.94928 15 10.8333 15ZM9.16667 16.875C6.86458 16.875 5 18.9727 5 21.5625C5 22.0781 5.375 22.5 5.83333 22.5H15.8333C16.2917 22.5 16.6667 22.0781 16.6667 21.5625C16.6667 18.9727 14.8021 16.875 12.5 16.875H9.16667ZM19.5833 8.4375C18.8906 8.4375 18.3333 9.06445 18.3333 9.84375C18.3333 10.623 18.8906 11.25 19.5833 11.25H23.75C24.4427 11.25 25 10.623 25 9.84375C25 9.06445 24.4427 8.4375 23.75 8.4375H19.5833ZM19.5833 14.0625C18.8906 14.0625 18.3333 14.6895 18.3333 15.4688C18.3333 16.248 18.8906 16.875 19.5833 16.875H23.75C24.4427 16.875 25 16.248 25 15.4688C25 14.6895 24.4427 14.0625 23.75 14.0625H19.5833Z" fill="#4ECB71"/>
</svg>
