<svg width="3086" height="2720" viewBox="0 0 3086 2720" fill="none" xmlns="http://www.w3.org/2000/svg">
<path d="M2966.32 1544.45H1595.91C1542.19 1544.45 1498.23 1512.01 1498.23 1472.35V94.0971C1498.23 54.4437 1542.19 22 1595.91 22H2966.32C3020.04 22 3064 54.4437 3064 94.0971V1472.35C3064 1512.01 3020.04 1544.45 2966.32 1544.45Z" stroke="#55C852" stroke-width="42.5" stroke-miterlimit="10" stroke-linecap="round" stroke-linejoin="round"/>
<path d="M2997.25 169.562H1570.84V1410.35H2997.25V169.562Z" stroke="#55C852" stroke-width="42.5" stroke-miterlimit="10" stroke-linecap="round" stroke-linejoin="round"/>
<path d="M22 2698C22 2698 752.627 1804.72 2300.81 1730.22H3064C2714.97 1940.02 3064 2698 3064 2698" stroke="#55C852" stroke-width="42.5" stroke-miterlimit="10" stroke-linecap="round" stroke-linejoin="round"/>
<path d="M528.947 2698C528.947 2698 1010.5 1811.45 2428.12 1730.22" stroke="#55C852" stroke-width="42.5" stroke-miterlimit="10" stroke-linecap="round" stroke-linejoin="round"/>
<path d="M1036.22 2698C1036.22 2698 1417.81 1804.72 2555.43 1730.22" stroke="#55C852" stroke-width="42.5" stroke-miterlimit="10" stroke-linecap="round" stroke-linejoin="round"/>
<path d="M1543.16 2698C1543.16 2698 1526.88 2007.79 2682.73 1730.22" stroke="#55C852" stroke-width="42.5" stroke-miterlimit="10" stroke-linecap="round" stroke-linejoin="round"/>
<path d="M2050.11 2698C2050.11 2698 1904.57 2082.29 2809.71 1730.22" stroke="#55C852" stroke-width="42.5" stroke-miterlimit="10" stroke-linecap="round" stroke-linejoin="round"/>
<path d="M2557.05 2698C2557.05 2698 2413.47 2021.25 2937.02 1730.22" stroke="#55C852" stroke-width="42.5" stroke-miterlimit="10" stroke-linecap="round" stroke-linejoin="round"/>
<path d="M22 1789.34H1785.73" stroke="#55C852" stroke-width="42.5" stroke-miterlimit="10" stroke-linecap="round" stroke-linejoin="round"/>
<path d="M22 1880.9H1393.06" stroke="#55C852" stroke-width="42.5" stroke-miterlimit="10" stroke-linecap="round" stroke-linejoin="round"/>
<path d="M22 2022.93H984.122" stroke="#55C852" stroke-width="42.5" stroke-miterlimit="10" stroke-linecap="round" stroke-linejoin="round"/>
<path d="M22 2236.1H599.925" stroke="#55C852" stroke-width="42.5" stroke-miterlimit="10" stroke-linecap="round" stroke-linejoin="round"/>
<path d="M22 2550.69H166.563" stroke="#55C852" stroke-width="42.5" stroke-miterlimit="10" stroke-linecap="round" stroke-linejoin="round"/>
<path d="M241.123 1732.87L201.726 1685.76L203.355 1609.82L219.634 1585.55L272.054 1695.38V1711.24L293.543 1714.84L298.427 1732.87" stroke="#55C852" stroke-width="42.5" stroke-miterlimit="10" stroke-linecap="round" stroke-linejoin="round"/>
<path d="M360.29 1732.86L335.87 1695.37L313.078 1690.56L283.449 1620.63L304.939 1591.55L352.15 1599L427.361 1580.74L445.594 1560.31L610.668 1567.52L664.717 1550.7L628.577 1612.22L625.32 1635.05L579.738 1691.77L591.134 1704.02L582.994 1732.86" stroke="#55C852" stroke-width="42.5" stroke-miterlimit="10" stroke-linecap="round" stroke-linejoin="round"/>
<path d="M658.206 1732.87L625.321 1692.97L654.95 1638.66L685.882 1615.83L726.906 1560.31L751.325 1605.01L752.954 1627.85L770.861 1649.71L790.721 1714.84L810.257 1716.04L816.769 1732.87" stroke="#55C852" stroke-width="42.5" stroke-miterlimit="10" stroke-linecap="round" stroke-linejoin="round"/>
<path d="M891.98 1732.86L867.561 1706.19L849.654 1701.38L807 1647.07L810.257 1595.16L852.909 1592.75L898.817 1575.93L939.842 1572.33L982.495 1592.75L1031.66 1654.28L1074.31 1678.31L1106.87 1679.51C1106.87 1679.51 1149.52 1715.8 1149.52 1712.19" stroke="#55C852" stroke-width="42.5" stroke-miterlimit="10" stroke-linecap="round" stroke-linejoin="round"/>
<path d="M1194.46 1686.96L1166.78 1621.83L1157.01 1602.61L1170.04 1585.78L1140.73 1548.29C1140.73 1548.29 1160.27 1525.46 1206.18 1541.08C1206.18 1541.08 1199.66 1504.8 1122.82 1520.66L1100.03 1491.58L1085.38 1520.66L984.122 1418.04L946.355 1360.12C946.355 1360.12 915.423 1299.8 843.468 1302.2H207.262L162.981 1332.48V1548.53L140.19 1580.02L162.981 1712.92L179.26 1714.12L184.145 1733.34" stroke="#55C852" stroke-width="42.5" stroke-miterlimit="10" stroke-linecap="round" stroke-linejoin="round"/>
<path d="M183.819 1730.22H22" stroke="#55C852" stroke-width="42.5" stroke-miterlimit="10" stroke-linecap="round" stroke-linejoin="round"/>
<path d="M298.427 1730.22H241.124" stroke="#55C852" stroke-width="42.5" stroke-miterlimit="10" stroke-linecap="round" stroke-linejoin="round"/>
<path d="M582.994 1730.22H360.29" stroke="#55C852" stroke-width="42.5" stroke-miterlimit="10" stroke-linecap="round" stroke-linejoin="round"/>
<path d="M816.769 1730.22H658.206" stroke="#55C852" stroke-width="42.5" stroke-miterlimit="10" stroke-linecap="round" stroke-linejoin="round"/>
<path d="M2300.81 1730.22H891.98" stroke="#55C852" stroke-width="42.5" stroke-miterlimit="10" stroke-linecap="round" stroke-linejoin="round"/>
<path d="M416.291 1137.1C451.455 1075.58 534.155 1032.56 630.205 1032.56C726.254 1032.56 808.955 1075.82 844.119 1137.1" stroke="#55C852" stroke-width="42.5" stroke-miterlimit="10" stroke-linecap="round" stroke-linejoin="round"/>
<path d="M305.59 1081.58C358.01 990.016 481.084 925.609 624.344 925.609C767.604 925.609 890.678 990.016 943.098 1081.58" stroke="#55C852" stroke-width="42.5" stroke-miterlimit="10" stroke-linecap="round" stroke-linejoin="round"/>
<path d="M192.61 1023.67C263.263 900.628 428.013 814.352 620.437 814.352C812.862 814.352 977.936 900.628 1048.26 1023.67" stroke="#55C852" stroke-width="42.5" stroke-miterlimit="10" stroke-linecap="round" stroke-linejoin="round"/>
<path d="M2930.83 234.451H1646.7V1334.41H2930.83V234.451Z" stroke="#55C852" stroke-width="42.5" stroke-miterlimit="10" stroke-linecap="round" stroke-linejoin="round"/>
<path d="M1652.56 332.738C1719.96 364.461 1864.85 711.969 1967.41 600.94C1985.32 581.473 1979.78 556.72 1994.76 535.812C2022.11 497.841 2072.25 481.018 2126.62 470.444C2259.79 444.249 2372.44 456.505 2461 537.734C2531.98 602.622 2607.52 700.193 2560.31 787.912C2547.61 811.463 2506.59 846.791 2476.63 860.489C2433.33 880.436 2381.89 869.862 2334.02 880.436C2228.21 903.748 2182.62 978.488 2264.02 1048.18C2330.77 1105.38 2417.38 1107.06 2509.84 1115.47C2664.17 1129.41 2865.71 1182.28 2933.76 1295.48" stroke="#55C852" stroke-width="42.5" stroke-miterlimit="10" stroke-linecap="round" stroke-linejoin="round"/>
<path d="M2887.2 1333.93C2805.81 1273.85 2763.15 1235.88 2659.62 1195.74C2574.64 1162.82 2493.56 1158.49 2397.84 1151.04C2221.04 1137.35 2021.78 1005.65 2163.41 879.238C2221.69 827.087 2280.63 837.902 2361.37 819.878C2463.28 797.287 2497.8 707.647 2444.73 640.837C2408.26 595.175 2317.74 542.064 2240.25 542.544C2148.76 543.025 2081.37 607.912 2029.6 655.496C1969.04 711.492 1911.73 759.076 1816.33 710.05C1748.94 675.443 1683.49 613.92 1652.56 560.569" stroke="#55C852" stroke-width="42.5" stroke-miterlimit="10" stroke-linecap="round" stroke-linejoin="round"/>
<path d="M2806.78 410.848C2806.78 451.703 2762.18 569.461 2706.83 569.461C2651.48 569.461 2606.87 451.462 2606.87 410.848C2606.87 369.993 2651.48 337.068 2706.83 337.068C2762.18 337.068 2806.78 370.233 2806.78 410.848Z" stroke="#55C852" stroke-width="42.5" stroke-miterlimit="10" stroke-linecap="round" stroke-linejoin="round"/>
<path d="M2706.83 456.028C2740.63 456.028 2768.04 435.799 2768.04 410.847C2768.04 385.894 2740.63 365.666 2706.83 365.666C2673.02 365.666 2645.61 385.894 2645.61 410.847C2645.61 435.799 2673.02 456.028 2706.83 456.028Z" stroke="#55C852" stroke-width="42.5" stroke-miterlimit="10" stroke-linecap="round" stroke-linejoin="round"/>
<path d="M2297.23 108.992C2310.54 108.992 2321.33 101.03 2321.33 91.2079C2321.33 81.3861 2310.54 73.4238 2297.23 73.4238C2283.93 73.4238 2273.14 81.3861 2273.14 91.2079C2273.14 101.03 2283.93 108.992 2297.23 108.992Z" stroke="#55C852" stroke-width="42.5" stroke-miterlimit="10" stroke-linecap="round" stroke-linejoin="round"/>
</svg>
