<svg width="2819" height="1847" viewBox="0 0 2819 1847" fill="none" xmlns="http://www.w3.org/2000/svg">
<path d="M2707.9 1047.78H1457.76C1408.76 1047.78 1368.66 1025.92 1368.66 999.201V70.5767C1368.66 43.8595 1408.76 22 1457.76 22H2707.9C2756.9 22 2797 43.8595 2797 70.5767V999.201C2797 1025.92 2756.9 1047.78 2707.9 1047.78Z" stroke="black" stroke-width="42.5" stroke-miterlimit="10" stroke-linecap="round" stroke-linejoin="round"/>
<path d="M2736.11 121.422H1434.9V957.426H2736.11V121.422Z" stroke="black" stroke-width="42.5" stroke-miterlimit="10" stroke-linecap="round" stroke-linejoin="round"/>
<path d="M22 1825C22 1825 688.499 1223.14 2100.8 1172.94H2797C2478.6 1314.3 2797 1825 2797 1825" stroke="black" stroke-width="42.5" stroke-miterlimit="10" stroke-linecap="round" stroke-linejoin="round"/>
<path d="M484.451 1825C484.451 1825 923.734 1227.67 2216.93 1172.94" stroke="black" stroke-width="42.5" stroke-miterlimit="10" stroke-linecap="round" stroke-linejoin="round"/>
<path d="M947.198 1825C947.198 1825 1295.3 1223.14 2333.06 1172.94" stroke="black" stroke-width="42.5" stroke-miterlimit="10" stroke-linecap="round" stroke-linejoin="round"/>
<path d="M1409.65 1825C1409.65 1825 1394.8 1359.96 2449.2 1172.94" stroke="black" stroke-width="42.5" stroke-miterlimit="10" stroke-linecap="round" stroke-linejoin="round"/>
<path d="M1872.1 1825C1872.1 1825 1739.33 1410.16 2565.03 1172.94" stroke="black" stroke-width="42.5" stroke-miterlimit="10" stroke-linecap="round" stroke-linejoin="round"/>
<path d="M2334.55 1825C2334.55 1825 2203.57 1369.03 2681.17 1172.94" stroke="black" stroke-width="42.5" stroke-miterlimit="10" stroke-linecap="round" stroke-linejoin="round"/>
<path d="M22 1212.78H1630.92" stroke="black" stroke-width="42.5" stroke-miterlimit="10" stroke-linecap="round" stroke-linejoin="round"/>
<path d="M22 1274.46H1272.72" stroke="black" stroke-width="42.5" stroke-miterlimit="10" stroke-linecap="round" stroke-linejoin="round"/>
<path d="M22 1370.16H899.675" stroke="black" stroke-width="42.5" stroke-miterlimit="10" stroke-linecap="round" stroke-linejoin="round"/>
<path d="M22 1513.79H549.2" stroke="black" stroke-width="42.5" stroke-miterlimit="10" stroke-linecap="round" stroke-linejoin="round"/>
<path d="M22 1725.74H153.874" stroke="black" stroke-width="42.5" stroke-miterlimit="10" stroke-linecap="round" stroke-linejoin="round"/>
<path d="M221.891 1174.73L185.951 1142.99L187.437 1091.82L202.288 1075.47L250.107 1149.47V1160.15L269.71 1162.58L274.165 1174.73" stroke="black" stroke-width="42.5" stroke-miterlimit="10" stroke-linecap="round" stroke-linejoin="round"/>
<path d="M330.597 1174.72L308.321 1149.46L287.53 1146.22L260.502 1099.1L280.105 1079.51L323.172 1084.53L391.782 1072.22L408.415 1058.46L559 1063.32L608.305 1051.98L575.337 1093.44L572.366 1108.82L530.784 1147.03L541.18 1155.29L533.755 1174.72" stroke="black" stroke-width="42.5" stroke-miterlimit="10" stroke-linecap="round" stroke-linejoin="round"/>
<path d="M602.366 1174.73L572.367 1147.85L599.395 1111.25L627.612 1095.87L665.035 1058.46L687.311 1088.58L688.797 1103.96L705.132 1118.7L723.25 1162.58L741.071 1163.39L747.011 1174.73" stroke="black" stroke-width="42.5" stroke-miterlimit="10" stroke-linecap="round" stroke-linejoin="round"/>
<path d="M815.621 1174.72L793.345 1156.75L777.01 1153.51L738.1 1116.92L741.07 1081.94L779.979 1080.32L821.858 1068.99L859.282 1066.56L898.191 1080.32L943.04 1121.77L981.949 1137.97L1011.65 1138.78C1011.65 1138.78 1050.56 1163.23 1050.56 1160.8" stroke="black" stroke-width="42.5" stroke-miterlimit="10" stroke-linecap="round" stroke-linejoin="round"/>
<path d="M1091.55 1143.8L1066.3 1099.92L1057.39 1086.96L1069.27 1075.63L1042.54 1050.37C1042.54 1050.37 1060.36 1034.98 1102.24 1045.51C1102.24 1045.51 1096.3 1021.06 1026.2 1031.75L1005.41 1012.15L992.047 1031.75L899.676 962.605L865.223 923.582C865.223 923.582 837.006 882.94 771.366 884.559H191.001L150.607 904.961V1050.53L129.816 1071.74L150.607 1161.28L165.458 1162.09L169.913 1175.05" stroke="black" stroke-width="42.5" stroke-miterlimit="10" stroke-linecap="round" stroke-linejoin="round"/>
<path d="M169.616 1172.94H22" stroke="black" stroke-width="42.5" stroke-miterlimit="10" stroke-linecap="round" stroke-linejoin="round"/>
<path d="M274.165 1172.94H221.891" stroke="black" stroke-width="42.5" stroke-miterlimit="10" stroke-linecap="round" stroke-linejoin="round"/>
<path d="M533.755 1172.94H330.598" stroke="black" stroke-width="42.5" stroke-miterlimit="10" stroke-linecap="round" stroke-linejoin="round"/>
<path d="M747.011 1172.94H602.365" stroke="black" stroke-width="42.5" stroke-miterlimit="10" stroke-linecap="round" stroke-linejoin="round"/>
<path d="M2100.8 1172.94H815.621" stroke="black" stroke-width="42.5" stroke-miterlimit="10" stroke-linecap="round" stroke-linejoin="round"/>
<path d="M381.684 773.317C413.761 731.865 489.203 702.881 576.822 702.881C664.441 702.881 739.883 732.027 771.96 773.317" stroke="black" stroke-width="42.5" stroke-miterlimit="10" stroke-linecap="round" stroke-linejoin="round"/>
<path d="M280.699 735.91C328.518 674.217 440.789 630.822 571.476 630.822C702.162 630.822 814.433 674.217 862.252 735.91" stroke="black" stroke-width="42.5" stroke-miterlimit="10" stroke-linecap="round" stroke-linejoin="round"/>
<path d="M177.635 696.893C242.087 613.989 392.377 555.859 567.912 555.859C743.447 555.859 894.032 613.989 958.187 696.893" stroke="black" stroke-width="42.5" stroke-miterlimit="10" stroke-linecap="round" stroke-linejoin="round"/>
<path d="M2675.52 165.143H1504.1V906.26H2675.52V165.143Z" stroke="black" stroke-width="42.5" stroke-miterlimit="10" stroke-linecap="round" stroke-linejoin="round"/>
<path d="M1509.44 231.365C1570.93 252.739 1703.1 486.878 1796.66 412.07C1812.99 398.955 1807.94 382.277 1821.61 368.19C1846.56 342.606 1892.3 331.271 1941.9 324.147C2063.38 306.497 2166.14 314.755 2246.93 369.485C2311.68 413.204 2380.59 478.944 2337.52 538.046C2325.94 553.914 2288.51 577.717 2261.19 586.946C2221.68 600.386 2174.76 593.261 2131.1 600.386C2034.57 616.092 1992.98 666.45 2067.24 713.408C2128.12 751.945 2207.13 753.079 2291.48 758.746C2432.27 768.137 2616.12 803.76 2678.19 880.026" stroke="black" stroke-width="42.5" stroke-miterlimit="10" stroke-linecap="round" stroke-linejoin="round"/>
<path d="M2635.72 905.934C2561.47 865.454 2522.56 839.87 2428.11 812.829C2350.59 790.646 2276.63 787.731 2189.31 782.712C2028.03 773.482 1846.26 684.749 1975.46 599.578C2028.63 564.441 2082.39 571.727 2156.04 559.583C2249.01 544.362 2280.49 483.965 2232.08 438.951C2198.81 408.186 2116.24 372.401 2045.56 372.725C1962.09 373.049 1900.61 416.768 1853.39 448.828C1798.14 486.556 1745.87 518.617 1658.84 485.585C1597.36 462.268 1537.66 420.816 1509.44 384.869" stroke="black" stroke-width="42.5" stroke-miterlimit="10" stroke-linecap="round" stroke-linejoin="round"/>
<path d="M2562.36 283.993C2562.36 311.52 2521.67 390.862 2471.18 390.862C2420.68 390.862 2379.99 311.358 2379.99 283.993C2379.99 256.466 2420.68 234.283 2471.18 234.283C2521.67 234.283 2562.36 256.628 2562.36 283.993Z" stroke="black" stroke-width="42.5" stroke-miterlimit="10" stroke-linecap="round" stroke-linejoin="round"/>
<path d="M2471.18 314.433C2502.01 314.433 2527.01 300.804 2527.01 283.992C2527.01 267.18 2502.01 253.551 2471.18 253.551C2440.34 253.551 2415.34 267.18 2415.34 283.992C2415.34 300.804 2440.34 314.433 2471.18 314.433Z" stroke="black" stroke-width="42.5" stroke-miterlimit="10" stroke-linecap="round" stroke-linejoin="round"/>
<path d="M2097.53 80.6129C2109.67 80.6129 2119.51 75.2484 2119.51 68.6308C2119.51 62.0132 2109.67 56.6484 2097.53 56.6484C2085.39 56.6484 2075.55 62.0132 2075.55 68.6308C2075.55 75.2484 2085.39 80.6129 2097.53 80.6129Z" stroke="black" stroke-width="42.5" stroke-miterlimit="10" stroke-linecap="round" stroke-linejoin="round"/>
</svg>
