<svg width="25" height="30" viewBox="0 0 25 30" fill="none" xmlns="http://www.w3.org/2000/svg">
<path d="M12.5 14.25C11.316 14.25 10.1805 13.8549 9.34327 13.1517C8.50606 12.4484 8.03571 11.4946 8.03571 10.5C8.03571 9.50544 8.50606 8.55161 9.34327 7.84835C10.1805 7.14509 11.316 6.75 12.5 6.75C13.684 6.75 14.8195 7.14509 15.6567 7.84835C16.4939 8.55161 16.9643 9.50544 16.9643 10.5C16.9643 10.9925 16.8488 11.4801 16.6245 11.9351C16.4001 12.39 16.0713 12.8034 15.6567 13.1517C15.2422 13.4999 14.75 13.7761 14.2084 13.9645C13.6668 14.153 13.0863 14.25 12.5 14.25ZM12.5 0C9.18479 0 6.00537 1.10625 3.66116 3.07538C1.31696 5.04451 0 7.71523 0 10.5C0 18.375 12.5 30 12.5 30C12.5 30 25 18.375 25 10.5C25 7.71523 23.683 5.04451 21.3388 3.07538C18.9946 1.10625 15.8152 0 12.5 0Z" fill="#4ECB71"/>
</svg>
