<svg width="40" height="40" viewBox="0 0 40 40" fill="none" xmlns="http://www.w3.org/2000/svg">
<path d="M18.6348 27.4068L18.2939 36.0367L18.2487 36.5534L8.70107 35.8734C8.12685 35.8124 7.58972 35.5521 7.17766 35.1351C6.72816 34.7131 6.3684 34.1995 6.12112 33.6267L6.10981 33.5984C5.94659 33.1937 5.83683 32.7683 5.78348 32.3334L5.78025 32.3084C5.73077 31.7875 5.7635 31.2618 5.87718 30.7518L5.87072 30.7834C5.98488 30.2046 6.07373 29.7746 6.13727 29.4935C6.30206 28.8801 6.46845 28.3818 6.6607 27.8951L6.62677 27.9935C6.88417 27.2746 7.02795 26.8618 7.05811 26.7552C8.24173 26.9407 12.0995 27.1585 18.6315 27.4085L18.6348 27.4068ZM9.83515 13.6653L13.9272 22.5535L10.5864 20.3969C9.69991 21.4336 8.87761 22.5269 8.12434 23.6702L8.05325 23.7852C7.4846 24.6235 6.93533 25.5852 6.46037 26.5885L6.40545 26.7168C6.04142 27.5424 5.74255 28.2812 5.50885 28.9335C5.32729 29.3942 5.18933 29.872 5.09689 30.3601L5.08882 30.4118L4.99835 30.9034L0.680124 22.5319C0.427302 22.1435 0.285651 21.6895 0.271404 21.2219V21.2169C0.241555 20.8376 0.288878 20.4562 0.410336 20.0969L0.40549 20.1169L0.586426 19.6952C1.11954 18.7108 1.98329 17.2436 3.17768 15.2936L0 13.2686L9.83515 13.6653ZM37.8156 25.7902L33.549 34.2084C33.3791 34.643 33.0941 35.0195 32.7267 35.2951L32.7203 35.3001C32.4349 35.5322 32.1025 35.6951 31.7478 35.7767L31.7316 35.78L31.3229 35.8734C30.247 35.9823 28.5878 36.0739 26.3455 36.1484L26.5265 40L21.2987 31.3934L26.0984 22.9035L26.2567 26.9602C28.4323 27.2059 30.6253 27.2428 32.8075 27.0701L32.688 27.0785C34.0423 26.9894 35.3794 26.7176 36.6653 26.2702L36.5555 26.3035L37.8156 25.7902ZM19.9772 4.12041C19.2664 5.10485 17.2584 8.50536 13.9531 14.322L6.75278 9.93701L6.32144 9.66202L11.4361 1.31378C11.7592 0.817119 12.2277 0.445456 12.7786 0.260458L12.7964 0.255458C13.3835 0.0347262 14.0118 -0.0445163 14.6332 0.0237944L14.6154 0.0221277C15.0209 0.058794 15.3957 0.157126 15.743 0.307124L15.7188 0.297125C16.0855 0.450456 16.3957 0.617121 16.6897 0.807119L16.6639 0.792119C17.016 1.03545 17.3246 1.29045 17.6089 1.56878L17.6057 1.56544C17.9697 1.90988 18.2427 2.17933 18.4247 2.37377C18.6068 2.56821 18.8798 2.87654 19.2438 3.29876C19.6111 3.72097 19.8555 3.99486 19.9772 4.12041ZM34.8657 11.3187L39.6847 19.8319C39.959 20.3884 40.0578 21.0195 39.9674 21.6369L39.969 21.6202C39.8821 22.245 39.6655 22.843 39.3341 23.3735L39.3438 23.3569C39.1366 23.6797 38.8859 23.9704 38.5991 24.2202L38.5926 24.2252C38.3302 24.4593 38.051 24.6727 37.7574 24.8635L37.7283 24.8802C37.4149 25.0718 37.0498 25.2452 36.6686 25.3818L36.6249 25.3952C36.1629 25.5674 35.8075 25.6924 35.5587 25.7702C35.3099 25.8479 34.9195 25.9574 34.3875 26.0985L33.3422 26.3735C32.8264 25.2479 30.8183 21.8397 27.3181 16.1486L34.4327 11.5753L34.8657 11.3187ZM31.6153 6.01873L34.843 4.07208L29.8431 12.8203L20.3165 12.352L23.7494 10.3353C23.2409 8.93844 22.6424 7.57819 21.9578 6.26372L22.0451 6.44705C21.5303 5.41464 20.9411 4.42354 20.2826 3.48209L20.3278 3.55042C19.8055 2.82265 19.3165 2.1971 18.8609 1.67378C18.5386 1.28509 18.1864 0.92392 17.8076 0.593788L17.7947 0.582121L17.4086 0.277125L26.6089 0.300458C27.0675 0.249556 27.5307 0.337584 27.9416 0.553788L27.9287 0.547122C28.2793 0.710453 28.5749 0.937117 28.8172 1.21545L28.8189 1.21878L29.0693 1.57044C29.6605 2.51932 30.5092 4.00208 31.6153 6.01873Z" fill="black"/>
</svg>
