<svg width="20" height="20" viewBox="0 0 20 20" fill="none" xmlns="http://www.w3.org/2000/svg">
<path d="M9.31738 13.7034L9.14695 18.0184L9.12433 18.2767L4.35053 17.9367C4.06343 17.9062 3.79486 17.7761 3.58883 17.5675C3.36408 17.3565 3.1842 17.0997 3.06056 16.8134L3.05491 16.7992C2.9733 16.5969 2.91842 16.3841 2.89174 16.1667L2.89012 16.1542C2.86538 15.8938 2.88175 15.6309 2.93859 15.3759L2.93536 15.3917C2.99244 15.1023 3.03687 14.8873 3.06864 14.7467C3.15103 14.4401 3.23423 14.1909 3.33035 13.9476L3.31339 13.9967C3.44209 13.6373 3.51398 13.4309 3.52905 13.3776C4.12086 13.4704 6.04977 13.5792 9.31577 13.7042L9.31738 13.7034ZM4.91757 6.83265L6.9636 11.2768L5.29318 10.1984C4.84995 10.7168 4.4388 11.2634 4.06217 11.8351L4.02663 11.8926C3.7423 12.3118 3.46766 12.7926 3.23019 13.2942L3.20272 13.3584C3.02071 13.7712 2.87128 14.1406 2.75442 14.4667C2.66365 14.6971 2.59467 14.936 2.54845 15.1801L2.54441 15.2059L2.49917 15.4517L0.340062 11.2659C0.213651 11.0717 0.142825 10.8447 0.135702 10.6109V10.6084C0.120778 10.4188 0.144439 10.2281 0.205168 10.0484L0.202745 10.0584L0.293213 9.84762C0.55977 9.3554 0.991646 8.6218 1.58884 7.64681L0 6.63432L4.91757 6.83265ZM18.9078 12.8951L16.7745 17.1042C16.6895 17.3215 16.5471 17.5098 16.3634 17.6475L16.3601 17.65C16.2174 17.7661 16.0512 17.8475 15.8739 17.8884L15.8658 17.89L15.6614 17.9367C15.1235 17.9911 14.2939 18.037 13.1728 18.0742L13.2632 20L10.6494 15.6967L13.0492 11.4518L13.1283 13.4801C14.2161 13.603 15.3127 13.6214 16.4038 13.5351L16.344 13.5392C17.0211 13.4947 17.6897 13.3588 18.3327 13.1351L18.2777 13.1517L18.9078 12.8951ZM9.98862 2.06021C9.63321 2.55242 8.62918 4.25268 6.97653 7.16098L3.37639 4.96851L3.16072 4.83101L5.71805 0.65689C5.8796 0.408559 6.11385 0.222728 6.38929 0.130229L6.39818 0.127729C6.69174 0.0173631 7.00589 -0.0222581 7.31659 0.0118972L7.3077 0.0110639C7.51045 0.029397 7.69784 0.0785631 7.87151 0.153562L7.85939 0.148562C8.04275 0.225228 8.19784 0.30856 8.34485 0.403559L8.33193 0.396059C8.50802 0.517725 8.6623 0.645223 8.80446 0.784388L8.80284 0.782722C8.98486 0.954942 9.12137 1.08966 9.21237 1.18688C9.30338 1.2841 9.43989 1.43827 9.6219 1.64938C9.80553 1.86049 9.92777 1.99743 9.98862 2.06021ZM17.4328 5.65933L19.8423 9.91595C19.9795 10.1942 20.0289 10.5098 19.9837 10.8184L19.9845 10.8101C19.941 11.1225 19.8328 11.4215 19.6671 11.6868L19.6719 11.6784C19.5683 11.8399 19.4429 11.9852 19.2995 12.1101L19.2963 12.1126C19.1651 12.2297 19.0255 12.3364 18.8787 12.4318L18.8642 12.4401C18.7075 12.5359 18.5249 12.6226 18.3343 12.6909L18.3125 12.6976C18.0815 12.7837 17.9037 12.8462 17.7794 12.8851C17.655 12.924 17.4598 12.9787 17.1937 13.0492L16.6711 13.1867C16.4132 12.624 15.4092 10.9198 13.659 8.0743L17.2164 5.78766L17.4328 5.65933ZM15.8076 3.00936L17.4215 2.03604L14.9215 6.41016L10.1582 6.17599L11.8747 5.16767C11.6205 4.46922 11.3212 3.7891 10.9789 3.13186L11.0225 3.22353C10.7651 2.70732 10.4706 2.21177 10.1413 1.74104L10.1639 1.77521C9.90273 1.41133 9.65825 1.09855 9.43047 0.836888C9.2693 0.642546 9.09318 0.46196 8.90381 0.296894L8.89735 0.291061L8.7043 0.138562L13.3044 0.150229C13.5338 0.124778 13.7653 0.168792 13.9708 0.276894L13.9644 0.273561C14.1396 0.355227 14.2875 0.468559 14.4086 0.607724L14.4094 0.60939L14.5346 0.785222C14.8303 1.25966 15.2546 2.00104 15.8076 3.00936Z" fill="#4ECB71"/>
</svg>
