<svg width="19" height="15" viewBox="0 0 19 15" fill="none" xmlns="http://www.w3.org/2000/svg">
<path d="M12.06 0.439627L17.717 6.09663C17.9979 6.37788 18.1557 6.75913 18.1557 7.15663C18.1557 7.55413 17.9979 7.93538 17.717 8.21663L12.061 13.8746C11.7796 14.156 11.398 14.3141 11 14.3141C10.602 14.3141 10.2204 14.156 9.939 13.8746C9.65761 13.5932 9.49952 13.2116 9.49952 12.8136C9.49952 12.4157 9.65761 12.034 9.939 11.7526L13.035 8.65663H1.5C1.10218 8.65663 0.720644 8.49859 0.43934 8.21729C0.158035 7.93598 0 7.55445 0 7.15663C0 6.7588 0.158035 6.37727 0.43934 6.09597C0.720644 5.81466 1.10218 5.65663 1.5 5.65663H13.035L9.94 2.56063C9.65874 2.27923 9.50078 1.89763 9.50087 1.49977C9.50097 1.10192 9.65911 0.720389 9.9405 0.439127C10.2219 0.157865 10.6035 -9.37235e-05 11.0014 4.17208e-08C11.3992 9.38069e-05 11.7807 0.158233 12.062 0.439627H12.06Z" fill="#4ECB71"/>
</svg>
