<svg width="2817" height="2309" viewBox="0 0 2817 2309" fill="none" xmlns="http://www.w3.org/2000/svg">
<path d="M109.323 2286.18C109.323 2286.18 1016.72 1460.56 2795.4 1419.49" stroke="#0E5A0C" stroke-opacity="0.91" stroke-width="41.5" stroke-miterlimit="10" stroke-linecap="round" stroke-linejoin="round"/>
<path d="M350.121 2288C350.121 2288 1192.47 1543.6 2796 1506.62" stroke="#0E5A0C" stroke-opacity="0.91" stroke-width="41.5" stroke-miterlimit="10" stroke-linecap="round" stroke-linejoin="round"/>
<path d="M616.581 2287.09C616.581 2287.09 1463.7 1669.06 2795.1 1638.43" stroke="#0E5A0C" stroke-opacity="0.91" stroke-width="41.5" stroke-miterlimit="10" stroke-linecap="round" stroke-linejoin="round"/>
<path d="M919.145 2281.87C919.145 2281.87 1762.69 1804.29 2791.52 1780.46" stroke="#0E5A0C" stroke-opacity="0.91" stroke-width="41.5" stroke-miterlimit="10" stroke-linecap="round" stroke-linejoin="round"/>
<path d="M1236.93 2278.25C1236.93 2278.25 2017.21 1918.87 2791.23 1900.94" stroke="#0E5A0C" stroke-opacity="0.91" stroke-width="41.5" stroke-miterlimit="10" stroke-linecap="round" stroke-linejoin="round"/>
<path d="M1616.48 2277.11C1616.48 2277.11 2307.24 2053.4 2789.14 2042.29" stroke="#0E5A0C" stroke-opacity="0.91" stroke-width="41.5" stroke-miterlimit="10" stroke-linecap="round" stroke-linejoin="round"/>
<path d="M2093 2271.89C2093 2271.89 2559.38 2167.52 2784.06 2162.31" stroke="#0E5A0C" stroke-opacity="0.91" stroke-width="41.5" stroke-miterlimit="10" stroke-linecap="round" stroke-linejoin="round"/>
<path d="M1560.68 1584.22C1154.27 1447.86 641.048 1338.5 22.1934 1324.21" stroke="#0E5A0C" stroke-opacity="0.91" stroke-width="41.5" stroke-miterlimit="10" stroke-linecap="round" stroke-linejoin="round"/>
<path d="M1390 1637.31C1023.88 1518.2 566.452 1423.81 21 1411.11" stroke="#0E5A0C" stroke-opacity="0.91" stroke-width="41.5" stroke-miterlimit="10" stroke-linecap="round" stroke-linejoin="round"/>
<path d="M1139.65 1713.77C824.556 1623.02 448.29 1553.14 22.1934 1543.38" stroke="#0E5A0C" stroke-opacity="0.91" stroke-width="41.5" stroke-miterlimit="10" stroke-linecap="round" stroke-linejoin="round"/>
<path d="M912.58 1811.1C648.209 1743.94 345.943 1692.44 25.7739 1685.18" stroke="#0E5A0C" stroke-opacity="0.91" stroke-width="41.5" stroke-miterlimit="10" stroke-linecap="round" stroke-linejoin="round"/>
<path d="M729.371 1901.17C510.355 1850.35 267.766 1811.33 25.7739 1805.66" stroke="#0E5A0C" stroke-opacity="0.91" stroke-width="41.5" stroke-miterlimit="10" stroke-linecap="round" stroke-linejoin="round"/>
<path d="M522.589 2008.03C356.089 1975.59 181.532 1950.4 28.1611 1947" stroke="#0E5A0C" stroke-opacity="0.91" stroke-width="41.5" stroke-miterlimit="10" stroke-linecap="round" stroke-linejoin="round"/>
<path d="M356.984 2105.14C240.016 2085.63 118.871 2069.06 32.9355 2067.02" stroke="#0E5A0C" stroke-opacity="0.91" stroke-width="41.5" stroke-miterlimit="10" stroke-linecap="round" stroke-linejoin="round"/>
<path d="M206.597 2212.67C142.145 2204.28 81.871 2198.38 32.9355 2197.25" stroke="#0E5A0C" stroke-opacity="0.91" stroke-width="41.5" stroke-miterlimit="10" stroke-linecap="round" stroke-linejoin="round"/>
<path d="M1318.98 1503.45V1253.88H1513.83V1565.84" stroke="#0E5A0C" stroke-opacity="0.91" stroke-width="41.5" stroke-miterlimit="10" stroke-linecap="round" stroke-linejoin="round"/>
<path d="M1192.47 1253.87C1192.47 1164.48 1287.65 1092.11 1405.22 1092.11C1522.78 1092.11 1617.97 1164.48 1617.97 1253.87H1192.47Z" stroke="#0E5A0C" stroke-opacity="0.91" stroke-width="41.5" stroke-miterlimit="10" stroke-linecap="round" stroke-linejoin="round"/>
<path d="M1105.34 1253.88H473.056" stroke="#0E5A0C" stroke-opacity="0.91" stroke-width="41.5" stroke-miterlimit="10" stroke-linecap="round" stroke-linejoin="round" stroke-dasharray="5 5"/>
<path d="M1144.43 1135.22L596.887 894.949" stroke="#0E5A0C" stroke-opacity="0.91" stroke-width="41.5" stroke-miterlimit="10" stroke-linecap="round" stroke-linejoin="round" stroke-dasharray="5 5"/>
<path d="M1256.32 1047.19L940.331 630.859" stroke="#0E5A0C" stroke-opacity="0.91" stroke-width="41.5" stroke-miterlimit="10" stroke-linecap="round" stroke-linejoin="round" stroke-dasharray="5 5"/>
<path d="M1411.19 1013.61V532.846" stroke="#0E5A0C" stroke-opacity="0.91" stroke-width="41.5" stroke-miterlimit="10" stroke-linecap="round" stroke-linejoin="round" stroke-dasharray="5 5"/>
<path d="M1567.54 1043.33L1883.53 626.998" stroke="#0E5A0C" stroke-opacity="0.91" stroke-width="41.5" stroke-miterlimit="10" stroke-linecap="round" stroke-linejoin="round" stroke-dasharray="5 5"/>
<path d="M1683.31 1128.4L2230.85 888.137" stroke="#0E5A0C" stroke-opacity="0.91" stroke-width="41.5" stroke-miterlimit="10" stroke-linecap="round" stroke-linejoin="round" stroke-dasharray="5 5"/>
<path d="M879.459 489.964C1034.62 425.983 1212.16 389.455 1401.04 389.455C1620.35 389.455 1824.75 438.462 1996.02 523.088" stroke="#0E5A0C" stroke-opacity="0.91" stroke-width="41.5" stroke-miterlimit="10" stroke-linecap="round" stroke-linejoin="round"/>
<path d="M775.621 341.577C960.919 265.118 1173.37 221.557 1398.95 221.557C1661.23 221.557 1905.61 280.319 2110.31 381.281" stroke="#0E5A0C" stroke-opacity="0.91" stroke-width="41.5" stroke-miterlimit="10" stroke-linecap="round" stroke-linejoin="round"/>
<path d="M651.492 164.389C872.895 72.9557 1126.82 21 1396.56 21C1709.87 21 2001.99 91.1064 2246.67 212.034" stroke="#0E5A0C" stroke-opacity="0.91" stroke-width="41.5" stroke-miterlimit="10" stroke-linecap="round" stroke-linejoin="round"/>
</svg>
