<svg width="2817" height="1845" viewBox="0 0 2817 1845" fill="none" xmlns="http://www.w3.org/2000/svg">
<path d="M109.323 1822.55C109.323 1822.55 1016.72 1165.92 2795.4 1133.26" stroke="black" stroke-width="41.5" stroke-miterlimit="10" stroke-linecap="round" stroke-linejoin="round"/>
<path d="M350.121 1824C350.121 1824 1192.47 1231.96 2796 1202.55" stroke="black" stroke-width="41.5" stroke-miterlimit="10" stroke-linecap="round" stroke-linejoin="round"/>
<path d="M616.581 1823.28C616.581 1823.28 1463.7 1331.74 2795.1 1307.38" stroke="black" stroke-width="41.5" stroke-miterlimit="10" stroke-linecap="round" stroke-linejoin="round"/>
<path d="M919.145 1819.13C919.145 1819.13 1762.69 1439.29 2791.52 1420.35" stroke="black" stroke-width="41.5" stroke-miterlimit="10" stroke-linecap="round" stroke-linejoin="round"/>
<path d="M1236.93 1816.24C1236.93 1816.24 2017.21 1530.42 2791.23 1516.16" stroke="black" stroke-width="41.5" stroke-miterlimit="10" stroke-linecap="round" stroke-linejoin="round"/>
<path d="M1616.48 1815.34C1616.48 1815.34 2307.24 1637.42 2789.14 1628.58" stroke="black" stroke-width="41.5" stroke-miterlimit="10" stroke-linecap="round" stroke-linejoin="round"/>
<path d="M2093 1811.19C2093 1811.19 2559.38 1728.18 2784.06 1724.03" stroke="black" stroke-width="41.5" stroke-miterlimit="10" stroke-linecap="round" stroke-linejoin="round"/>
<path d="M1560.68 1264.26C1154.27 1155.82 641.048 1068.84 22.1934 1057.47" stroke="black" stroke-width="41.5" stroke-miterlimit="10" stroke-linecap="round" stroke-linejoin="round"/>
<path d="M1390 1306.49C1023.88 1211.76 566.452 1136.69 21 1126.59" stroke="black" stroke-width="41.5" stroke-miterlimit="10" stroke-linecap="round" stroke-linejoin="round"/>
<path d="M1139.65 1367.3C824.556 1295.12 448.29 1239.55 22.1934 1231.79" stroke="black" stroke-width="41.5" stroke-miterlimit="10" stroke-linecap="round" stroke-linejoin="round"/>
<path d="M912.58 1444.71C648.209 1391.3 345.943 1350.33 25.7739 1344.56" stroke="black" stroke-width="41.5" stroke-miterlimit="10" stroke-linecap="round" stroke-linejoin="round"/>
<path d="M729.371 1516.35C510.355 1475.93 267.766 1444.89 25.7739 1440.38" stroke="black" stroke-width="41.5" stroke-miterlimit="10" stroke-linecap="round" stroke-linejoin="round"/>
<path d="M522.589 1601.33C356.089 1575.53 181.532 1555.5 28.1611 1552.79" stroke="black" stroke-width="41.5" stroke-miterlimit="10" stroke-linecap="round" stroke-linejoin="round"/>
<path d="M356.984 1678.57C240.016 1663.05 118.871 1649.88 32.9355 1648.25" stroke="black" stroke-width="41.5" stroke-miterlimit="10" stroke-linecap="round" stroke-linejoin="round"/>
<path d="M206.597 1764.09C142.145 1757.42 81.871 1752.72 32.9355 1751.82" stroke="black" stroke-width="41.5" stroke-miterlimit="10" stroke-linecap="round" stroke-linejoin="round"/>
<path d="M1318.98 1200.03V1001.54H1513.83V1249.65" stroke="black" stroke-width="41.5" stroke-miterlimit="10" stroke-linecap="round" stroke-linejoin="round"/>
<path d="M1192.47 1001.53C1192.47 930.439 1287.65 872.877 1405.22 872.877C1522.78 872.877 1617.97 930.439 1617.97 1001.53H1192.47Z" stroke="black" stroke-width="41.5" stroke-miterlimit="10" stroke-linecap="round" stroke-linejoin="round"/>
<path d="M1105.34 1001.54H473.056" stroke="black" stroke-width="41.5" stroke-miterlimit="10" stroke-linecap="round" stroke-linejoin="round" stroke-dasharray="5 5"/>
<path d="M1144.43 907.163L596.887 716.072" stroke="black" stroke-width="41.5" stroke-miterlimit="10" stroke-linecap="round" stroke-linejoin="round" stroke-dasharray="5 5"/>
<path d="M1256.32 837.151L940.331 506.035" stroke="black" stroke-width="41.5" stroke-miterlimit="10" stroke-linecap="round" stroke-linejoin="round" stroke-dasharray="5 5"/>
<path d="M1411.19 810.446V428.084" stroke="black" stroke-width="41.5" stroke-miterlimit="10" stroke-linecap="round" stroke-linejoin="round" stroke-dasharray="5 5"/>
<path d="M1567.54 834.081L1883.53 502.965" stroke="black" stroke-width="41.5" stroke-miterlimit="10" stroke-linecap="round" stroke-linejoin="round" stroke-dasharray="5 5"/>
<path d="M1683.31 901.745L2230.85 710.654" stroke="black" stroke-width="41.5" stroke-miterlimit="10" stroke-linecap="round" stroke-linejoin="round" stroke-dasharray="5 5"/>
<path d="M879.459 393.978C1034.62 343.093 1212.16 314.041 1401.04 314.041C1620.35 314.041 1824.75 353.017 1996.02 420.323" stroke="black" stroke-width="41.5" stroke-miterlimit="10" stroke-linecap="round" stroke-linejoin="round"/>
<path d="M775.621 275.963C960.919 215.153 1173.37 180.508 1398.95 180.508C1661.23 180.508 1905.61 227.243 2110.31 307.541" stroke="black" stroke-width="41.5" stroke-miterlimit="10" stroke-linecap="round" stroke-linejoin="round"/>
<path d="M651.492 135.041C872.895 62.3217 1126.82 21 1396.56 21C1709.87 21 2001.99 76.7573 2246.67 172.934" stroke="black" stroke-width="41.5" stroke-miterlimit="10" stroke-linecap="round" stroke-linejoin="round"/>
</svg>
