<svg width="2775" height="1849" viewBox="0 0 2775 1849" fill="none" xmlns="http://www.w3.org/2000/svg">
<path d="M1705 197.582C1750.19 169.283 1813.46 164.502 1865.61 189.36C1917.75 214.218 1944.4 261.83 1937.45 308.294" stroke="black" stroke-width="42.5" stroke-miterlimit="10" stroke-linecap="round" stroke-linejoin="round"/>
<path d="M1631.77 70.6217C1722.38 14.2138 1848.69 4.4619 1953.21 54.1773C2057.73 103.893 2110.8 199.117 2096.66 292.047" stroke="black" stroke-width="42.5" stroke-miterlimit="10" stroke-linecap="round" stroke-linejoin="round"/>
<path d="M1075.33 197.582C1030.14 169.283 966.87 164.502 914.726 189.36C862.581 214.218 835.93 261.83 842.883 308.294" stroke="black" stroke-width="42.5" stroke-miterlimit="10" stroke-linecap="round" stroke-linejoin="round"/>
<path d="M1148.8 70.6217C1058.18 14.2138 931.876 4.4619 827.356 54.1773C722.836 103.893 669.764 199.117 683.901 292.047" stroke="black" stroke-width="42.5" stroke-miterlimit="10" stroke-linecap="round" stroke-linejoin="round"/>
<path d="M1393.53 302.946H1108.93C1108.93 302.946 953.66 285.164 953.66 455.917H884.598L819.939 495.116V633.745H944.854V502.19H1022.49V857.847H876.023C876.023 857.847 751.108 868.555 751.108 1042.75H1044.28V1273.93L1108.93 1409.11H992.595V1159.96L943 1119.04H720.981L657.481 1171.44V1753.87L656.322 1807.22H583.088L544.386 1700.52L449.598 1625.76H0" stroke="black" stroke-width="42.5" stroke-miterlimit="10"/>
<path d="M1419.25 1625.76H1139.06V1554.62H988.193V1736.09L1005.57 1825L1070.23 1817.93L1117.51 1764.58H1419.25" stroke="black" stroke-width="42.5" stroke-miterlimit="10"/>
<path d="M1419.25 1451.56H1246.83L1272.78 1511.98H1419.25" stroke="black" stroke-width="42.5" stroke-miterlimit="10"/>
<path d="M1419.25 1337.79H1195.15L1221.1 1398.21H1419.25" stroke="black" stroke-width="42.5" stroke-miterlimit="10"/>
<path d="M1419.25 1220.38H1195.15L1221.1 1280.81H1419.25" stroke="black" stroke-width="42.5" stroke-miterlimit="10"/>
<path d="M1419.25 1102.98H1195.15L1221.1 1163.4H1419.25" stroke="black" stroke-width="42.5" stroke-miterlimit="10"/>
<path d="M1449.38 452.281H1100.36V790.155H1462.36" stroke="black" stroke-width="42.5" stroke-miterlimit="10"/>
<path d="M1044.28 1042.55V900.289L1173.59 790.15" stroke="black" stroke-width="42.5" stroke-miterlimit="10"/>
<path d="M1264.21 921.705H1126.31V1035.48H1264.21V921.705Z" stroke="black" stroke-width="42.5" stroke-miterlimit="10"/>
<path d="M690.854 1490.76L824.576 1600.9L958.064 1490.76" stroke="black" stroke-width="42.5" stroke-miterlimit="10"/>
<path d="M690.854 1605.68L824.576 1699.76L958.064 1605.68" stroke="black" stroke-width="42.5" stroke-miterlimit="10"/>
<path d="M690.854 1703.78L824.576 1783.89L958.064 1703.78" stroke="black" stroke-width="42.5" stroke-miterlimit="10"/>
<path d="M690.854 1364.94L824.576 1457.49L958.064 1364.94" stroke="black" stroke-width="42.5" stroke-miterlimit="10"/>
<path d="M690.854 1259.01L824.576 1337.02L958.064 1259.01" stroke="black" stroke-width="42.5" stroke-miterlimit="10"/>
<path d="M690.854 1170.09L824.576 1235.68L958.064 1170.09" stroke="black" stroke-width="42.5" stroke-miterlimit="10"/>
<path d="M1402.1 302.946H1686.69C1686.69 302.946 1841.96 285.164 1841.96 455.917H1911.03L1975.69 495.116V633.745H1850.77V502.19H1773.14V857.847H1919.6C1919.6 857.847 2044.52 868.555 2044.52 1042.75H1751.35V1273.93L1686.69 1409.11H1803.03V1159.96L1852.63 1119.04H2074.65L2138.14 1171.44V1753.87L2139.3 1807.22H2212.54L2251.24 1700.52L2346.03 1625.76H2775" stroke="black" stroke-width="42.5" stroke-miterlimit="10"/>
<path d="M1376.15 1625.76H1656.33V1554.62H1807.21V1736.09L1790.06 1825L1725.4 1817.93L1677.89 1764.58H1376.15" stroke="black" stroke-width="42.5" stroke-miterlimit="10"/>
<path d="M1376.15 1451.56H1548.57L1522.84 1511.98H1376.15" stroke="black" stroke-width="42.5" stroke-miterlimit="10"/>
<path d="M1376.15 1337.79H1600.25L1574.53 1398.21H1376.15" stroke="black" stroke-width="42.5" stroke-miterlimit="10"/>
<path d="M1376.15 1220.38H1600.25L1574.53 1280.81H1376.15" stroke="black" stroke-width="42.5" stroke-miterlimit="10"/>
<path d="M1376.15 1102.98H1600.25L1574.53 1163.4H1376.15" stroke="black" stroke-width="42.5" stroke-miterlimit="10"/>
<path d="M1346.02 452.281H1695.27V790.155H1333.04" stroke="black" stroke-width="42.5" stroke-miterlimit="10"/>
<path d="M1751.12 1042.55V900.289L1621.8 790.15" stroke="black" stroke-width="42.5" stroke-miterlimit="10"/>
<path d="M1669.31 921.705H1531.42V1035.48H1669.31V921.705Z" stroke="black" stroke-width="42.5" stroke-miterlimit="10"/>
<path d="M2104.54 1490.76L1971.05 1600.9L1837.33 1490.76" stroke="black" stroke-width="42.5" stroke-miterlimit="10"/>
<path d="M2104.54 1605.68L1971.05 1699.76L1837.33 1605.68" stroke="black" stroke-width="42.5" stroke-miterlimit="10"/>
<path d="M2104.54 1703.78L1971.05 1783.89L1837.33 1703.78" stroke="black" stroke-width="42.5" stroke-miterlimit="10"/>
<path d="M2104.54 1364.94L1971.05 1457.49L1837.33 1364.94" stroke="black" stroke-width="42.5" stroke-miterlimit="10"/>
<path d="M2104.54 1259.01L1971.05 1337.02L1837.33 1259.01" stroke="black" stroke-width="42.5" stroke-miterlimit="10"/>
<path d="M2104.54 1170.09L1971.05 1235.68L1837.33 1170.09" stroke="black" stroke-width="42.5" stroke-miterlimit="10"/>
</svg>
