<svg width="3920" height="2494" viewBox="0 0 3920 2494" fill="none" xmlns="http://www.w3.org/2000/svg">
<path d="M2408.51 260.394C2472.34 221.97 2561.72 215.48 2635.38 249.23C2709.04 282.98 2746.68 347.625 2736.86 410.712" stroke="#55C852" stroke-width="42.5" stroke-miterlimit="10" stroke-linecap="round" stroke-linejoin="round"/>
<path d="M2305.05 88.0154C2433.06 11.4284 2611.48 -1.81213 2759.13 65.6883C2906.77 133.189 2981.74 262.478 2961.77 388.652" stroke="#55C852" stroke-width="42.5" stroke-miterlimit="10" stroke-linecap="round" stroke-linejoin="round"/>
<path d="M1519.02 260.394C1455.19 221.97 1365.81 215.48 1292.15 249.23C1218.49 282.98 1180.85 347.625 1190.67 410.712" stroke="#55C852" stroke-width="42.5" stroke-miterlimit="10" stroke-linecap="round" stroke-linejoin="round"/>
<path d="M1622.8 88.0154C1494.8 11.4284 1316.38 -1.81213 1168.73 65.6883C1021.09 133.189 946.118 262.478 966.088 388.652" stroke="#55C852" stroke-width="42.5" stroke-miterlimit="10" stroke-linecap="round" stroke-linejoin="round"/>
<path d="M1968.51 403.452H1566.49C1566.49 403.452 1347.15 379.307 1347.15 611.146H1249.59L1158.26 664.367V852.59H1334.71V673.973H1444.38V1156.86H1237.48C1237.48 1156.86 1061.03 1171.4 1061.03 1407.91H1475.16V1721.79L1566.49 1905.34H1402.15V1567.06L1332.09 1511.5H1018.47L928.766 1582.63V2373.43L927.129 2445.86H823.677L769.006 2300.99L635.108 2199.48H0" stroke="#55C852" stroke-width="42.5" stroke-miterlimit="10"/>
<path d="M2004.85 2199.48H1609.05V2102.9H1395.93V2349.28L1420.49 2470L1511.82 2460.39L1578.61 2387.96H2004.85" stroke="#55C852" stroke-width="42.5" stroke-miterlimit="10"/>
<path d="M2004.85 1962.96H1761.28L1797.95 2045H2004.85" stroke="#55C852" stroke-width="42.5" stroke-miterlimit="10"/>
<path d="M2004.85 1808.49H1688.28L1724.95 1890.53H2004.85" stroke="#55C852" stroke-width="42.5" stroke-miterlimit="10"/>
<path d="M2004.85 1649.09H1688.28L1724.95 1731.13H2004.85" stroke="#55C852" stroke-width="42.5" stroke-miterlimit="10"/>
<path d="M2004.85 1489.68H1688.28L1724.95 1571.72H2004.85" stroke="#55C852" stroke-width="42.5" stroke-miterlimit="10"/>
<path d="M2047.41 606.209H1554.38V1064.95H2065.74" stroke="#55C852" stroke-width="42.5" stroke-miterlimit="10"/>
<path d="M1475.16 1407.64V1214.48L1657.83 1064.95" stroke="#55C852" stroke-width="42.5" stroke-miterlimit="10"/>
<path d="M1785.84 1243.56H1591.05V1398.03H1785.84V1243.56Z" stroke="#55C852" stroke-width="42.5" stroke-miterlimit="10"/>
<path d="M975.91 2016.19L1164.81 2165.72L1353.37 2016.19" stroke="#55C852" stroke-width="42.5" stroke-miterlimit="10"/>
<path d="M975.91 2172.22L1164.81 2299.96L1353.37 2172.22" stroke="#55C852" stroke-width="42.5" stroke-miterlimit="10"/>
<path d="M975.91 2305.41L1164.81 2414.19L1353.37 2305.41" stroke="#55C852" stroke-width="42.5" stroke-miterlimit="10"/>
<path d="M975.91 1845.37L1164.81 1971.02L1353.37 1845.37" stroke="#55C852" stroke-width="42.5" stroke-miterlimit="10"/>
<path d="M975.91 1701.54L1164.81 1807.46L1353.37 1701.54" stroke="#55C852" stroke-width="42.5" stroke-miterlimit="10"/>
<path d="M975.91 1580.81L1164.81 1669.86L1353.37 1580.81" stroke="#55C852" stroke-width="42.5" stroke-miterlimit="10"/>
<path d="M1980.62 403.452H2382.64C2382.64 403.452 2601.98 379.307 2601.98 611.146H2699.54L2790.88 664.367V852.59H2614.42V673.973H2504.75V1156.86H2711.65C2711.65 1156.86 2888.11 1171.4 2888.11 1407.91H2473.98V1721.79L2382.64 1905.34H2546.98V1567.06L2617.04 1511.5H2930.67L3020.37 1582.63V2373.43L3022.01 2445.86H3125.46L3180.13 2300.99L3314.03 2199.48H3920" stroke="#55C852" stroke-width="42.5" stroke-miterlimit="10"/>
<path d="M1943.96 2199.48H2339.76V2102.9H2552.88V2349.28L2528.66 2470L2437.32 2460.39L2370.2 2387.96H1943.96" stroke="#55C852" stroke-width="42.5" stroke-miterlimit="10"/>
<path d="M1943.96 1962.96H2187.53L2151.19 2045H1943.96" stroke="#55C852" stroke-width="42.5" stroke-miterlimit="10"/>
<path d="M1943.96 1808.49H2260.53L2224.2 1890.53H1943.96" stroke="#55C852" stroke-width="42.5" stroke-miterlimit="10"/>
<path d="M1943.96 1649.09H2260.53L2224.2 1731.13H1943.96" stroke="#55C852" stroke-width="42.5" stroke-miterlimit="10"/>
<path d="M1943.96 1489.68H2260.53L2224.2 1571.72H1943.96" stroke="#55C852" stroke-width="42.5" stroke-miterlimit="10"/>
<path d="M1901.4 606.209H2394.75V1064.95H1883.07" stroke="#55C852" stroke-width="42.5" stroke-miterlimit="10"/>
<path d="M2473.65 1407.64V1214.48L2290.98 1064.95" stroke="#55C852" stroke-width="42.5" stroke-miterlimit="10"/>
<path d="M2358.09 1243.56H2163.3V1398.03H2358.09V1243.56Z" stroke="#55C852" stroke-width="42.5" stroke-miterlimit="10"/>
<path d="M2972.9 2016.19L2784.33 2165.72L2595.44 2016.19" stroke="#55C852" stroke-width="42.5" stroke-miterlimit="10"/>
<path d="M2972.9 2172.22L2784.33 2299.96L2595.44 2172.22" stroke="#55C852" stroke-width="42.5" stroke-miterlimit="10"/>
<path d="M2972.9 2305.41L2784.33 2414.19L2595.44 2305.41" stroke="#55C852" stroke-width="42.5" stroke-miterlimit="10"/>
<path d="M2972.9 1845.37L2784.33 1971.02L2595.44 1845.37" stroke="#55C852" stroke-width="42.5" stroke-miterlimit="10"/>
<path d="M2972.9 1701.54L2784.33 1807.46L2595.44 1701.54" stroke="#55C852" stroke-width="42.5" stroke-miterlimit="10"/>
<path d="M2972.9 1580.81L2784.33 1669.86L2595.44 1580.81" stroke="#55C852" stroke-width="42.5" stroke-miterlimit="10"/>
</svg>
