<svg width="21" height="21" viewBox="0 0 21 21" fill="none" xmlns="http://www.w3.org/2000/svg">
<path d="M3.50444 5.76215C3.88079 5.76462 4.2534 5.68649 4.59777 5.5329L6.94444 7.94677C7.28423 7.48784 7.69909 7.09106 8.1711 6.77355L5.8511 4.41362C6.05903 4.05336 6.1694 3.64405 6.1711 3.22691C6.14675 2.53533 5.85247 1.88168 5.35269 1.40905C4.8529 0.936419 4.18832 0.683321 3.50444 0.705162C2.82055 0.683321 2.15597 0.936419 1.65618 1.40905C1.1564 1.88168 0.862116 2.53533 0.837769 3.22691C0.848113 3.57052 0.925314 3.9087 1.06496 4.22211C1.2046 4.53553 1.40395 4.81804 1.6516 5.05349C1.89926 5.28894 2.19037 5.47271 2.50829 5.59431C2.82621 5.71591 3.16471 5.77294 3.50444 5.76215ZM3.50444 2.39082C3.74578 2.37182 3.98499 2.44839 4.17157 2.60439C4.35815 2.76038 4.4775 2.9836 4.50444 3.22691C4.48073 3.47267 4.36276 3.69924 4.17582 3.85806C3.98889 4.01688 3.74786 4.09529 3.50444 4.07649C3.26101 4.09529 3.01998 4.01688 2.83305 3.85806C2.64611 3.69924 2.52814 3.47267 2.50444 3.22691C2.53137 2.9836 2.65072 2.76038 2.8373 2.60439C3.02388 2.44839 3.26309 2.37182 3.50444 2.39082ZM18.1711 15.539C17.7947 15.5365 17.4221 15.6146 17.0778 15.7682L14.5 13C14.1528 13.4456 13.9646 14.1695 13.4911 14.4737L15.8111 16.8201C15.6073 17.1814 15.5015 17.5908 15.5044 18.0068C15.5044 18.7221 15.7854 19.4081 16.2855 19.9139C16.7856 20.4197 17.4639 20.7039 18.1711 20.7039C18.8783 20.7039 19.5566 20.4197 20.0567 19.9139C20.5568 19.4081 20.8378 18.7221 20.8378 18.0068C20.7998 17.3248 20.4996 16.6848 20.0013 16.2236C19.503 15.7625 18.8462 15.5168 18.1711 15.539ZM18.1711 18.9103C17.9277 18.9291 17.6867 18.8507 17.4997 18.6919C17.3128 18.5331 17.1948 18.3065 17.1711 18.0607C17.21 17.8208 17.3319 17.6027 17.515 17.4454C17.6982 17.288 17.9308 17.2016 18.1711 17.2016C18.4115 17.2016 18.644 17.288 18.8272 17.4454C19.0103 17.6027 19.1322 17.8208 19.1711 18.0607C19.1474 18.3065 19.0294 18.5331 18.8425 18.6919C18.6556 18.8507 18.4145 18.9291 18.1711 18.9103Z" fill="#4ECB71"/>
</svg>
