<svg width="20" height="21" viewBox="0 0 20 21" fill="none" xmlns="http://www.w3.org/2000/svg">
<path d="M14.8725 14.774C14.8735 13.5592 14.61 12.3769 14.1218 11.4059L16.0057 8.60971C16.374 8.83886 16.7682 8.96107 17.1671 8.96982C17.528 8.98677 17.8876 8.89719 18.2254 8.70618C18.5631 8.51517 18.8724 8.22649 19.1354 7.85663C19.3985 7.48678 19.6103 7.043 19.7587 6.55068C19.907 6.05835 19.989 5.52713 20 4.98738C20 3.86375 19.7015 2.78614 19.1703 1.99162C18.639 1.19709 17.9185 0.750732 17.1671 0.750732C16.4158 0.750732 15.6953 1.19709 15.164 1.99162C14.6327 2.78614 14.3343 3.86375 14.3343 4.98738C14.3361 5.64263 14.4533 6.2856 14.6742 6.8515L12.7904 9.66887C12.1282 9.11455 11.3821 8.82285 10.6232 8.82154C9.68624 8.80223 8.77126 9.24666 8.02068 10.0857C7.2701 10.9247 6.72601 12.1112 6.47309 13.4607H5.49575C5.28183 12.6696 4.91316 11.9935 4.43801 11.5211C3.96287 11.0486 3.4034 10.8017 2.83286 10.8128C2.10636 10.7785 1.40036 11.176 0.869422 11.9185C0.338485 12.6609 0.025865 13.6877 0 14.774C0.0109894 15.3138 0.0930011 15.845 0.241347 16.3373C0.389693 16.8297 0.601464 17.2734 0.864555 17.6433C1.12765 18.0131 1.4369 18.3018 1.77463 18.4928C2.11237 18.6838 2.47196 18.7734 2.83286 18.7565C3.4034 18.7675 3.96287 18.5206 4.43801 18.0482C4.91316 17.5757 5.28183 16.8997 5.49575 16.1086H6.47309C6.72601 17.458 7.2701 18.6445 8.02068 19.4836C8.77126 20.3226 9.68624 20.767 10.6232 20.7477C11.1646 20.7731 11.704 20.6387 12.2106 20.3522C12.7172 20.0657 13.1811 19.6327 13.5757 19.0779C13.9703 18.5231 14.288 17.8575 14.5105 17.119C14.733 16.3805 14.856 15.5837 14.8725 14.774ZM17.1671 3.67402C17.4243 3.6386 17.6804 3.75686 17.8795 4.00295C18.0785 4.24905 18.2043 4.60297 18.2295 4.98738C18.1882 5.36421 18.0587 5.70683 17.8641 5.95405C17.6695 6.20127 17.4225 6.337 17.1671 6.337C16.9118 6.337 16.6648 6.20127 16.4702 5.95405C16.2756 5.70683 16.1461 5.36421 16.1048 4.98738C16.1334 4.60517 16.2602 4.25454 16.4584 4.00949C16.6566 3.76445 16.9108 3.64416 17.1671 3.67402ZM2.83286 16.1086C2.57426 16.1381 2.31822 16.0149 2.11963 15.7655C1.92104 15.516 1.79572 15.1601 1.77054 14.774C1.79915 14.3918 1.92594 14.0412 2.12415 13.7961C2.32236 13.5511 2.57647 13.4308 2.83286 13.4607C3.08925 13.4308 3.34336 13.5511 3.54157 13.7961C3.73978 14.0412 3.86657 14.3918 3.89518 14.774C3.87 15.1601 3.74468 15.516 3.54609 15.7655C3.34751 16.0149 3.09146 16.1381 2.83286 16.1086ZM10.6232 18.0998C10.0003 18.1461 9.39044 17.8226 8.92623 17.1998C8.46201 16.5769 8.18105 15.7051 8.14448 14.774C8.181 13.8447 8.46245 12.9749 8.92711 12.3555C9.39177 11.736 10.0017 11.4174 10.6232 11.4694C11.2438 11.423 11.8517 11.7436 12.3155 12.3619C12.7793 12.9803 13.0618 13.8467 13.102 14.774C13.0618 15.7031 12.7798 16.5717 12.3164 17.1934C11.853 17.8151 11.2452 18.1405 10.6232 18.0998Z" fill="#4ECB71"/>
</svg>
